<svg xmlns="http://www.w3.org/2000/svg" width="470" height="512" viewBox="0 0 470 512">
  <path fill="#D0021B" d="M457.21,334.093 L315,256 L457.21,177.907 C469.005,171.43 473.171,156.523 466.442,144.87 L446.962,111.129 C440.234,99.476 425.242,95.63 413.735,102.606 L275,186.718 L278.475,24.514 C278.763,11.061 267.937,0 254.48,0 L215.52,0 C202.064,0 191.237,11.061 191.526,24.514 L195,186.718 L56.265,102.607 C44.759,95.631 29.766,99.477 23.038,111.13 L3.558,144.871 C-3.17,156.524 0.996,171.431 12.791,177.908 L155,256 L12.79,334.093 C0.995,340.57 -3.171,355.477 3.558,367.13 L23.038,400.871 C29.766,412.524 44.759,416.37 56.265,409.394 L195,325.282 L191.525,487.486 C191.237,500.939 202.064,512 215.52,512 L254.481,512 C267.937,512 278.764,500.939 278.476,487.486 L275,325.282 L413.735,409.393 C425.241,416.369 440.234,412.523 446.962,400.87 L466.442,367.129 C473.17,355.476 469.005,340.57 457.21,334.093 Z"/>
</svg>
