<svg xmlns="http://www.w3.org/2000/svg" xmlns:xlink="http://www.w3.org/1999/xlink" width="31" height="31" viewBox="0 0 31 31">
    <defs>
        <path id="prefix__a" d="M0 0.071L30.926 0.071 30.926 30.857 0 30.857z"/>
    </defs>
    <g fill="none" fill-rule="evenodd" transform="translate(0 .072)">
        <mask id="prefix__b" fill="#fff">
            <use xlink:href="#prefix__a"/>
        </mask>
        <path fill="#707090" d="M2.62.077c9.417.02 16.834.014 26.251.014 2.316 0 2.047 1.633 2.045 3.151-.016 8.147-.007 16.294-.01 24.441-.002 2.054-1.115 3.162-3.18 3.163-8.183.004-16.367-.006-24.55.011-1.529.003-3.162-.372-3.162-2.036C.014 19.446 0 11.499 0 2.124 0-.151 2.106.076 2.62.077zm11.186 16.095c-3.833.025-7.666.018-11.5.004-.599-.002-.86.2-.857.824.016 3.626-.001 7.253.011 10.88.004 1.018.472 1.458 1.511 1.46 3.619.007 7.238-.01 10.857.013.659.004.872-.225.861-.873-.032-1.896-.011-3.792-.011-5.689 0-1.896-.02-3.792.01-5.688.012-.656-.172-.936-.882-.931zm3.233 0c-.656-.003-.879.253-.871.886.023 1.895.008 3.79.008 5.685h-.002c0 1.92.011 3.838-.008 5.757-.005.589.179.856.82.852 3.64-.02 7.281-.004 10.922-.016 1.03-.004 1.477-.455 1.48-1.492.012-3.625-.003-7.25.015-10.874.003-.59-.225-.798-.799-.796-3.855.012-7.71.016-11.565-.002zm-8.997 2.506c.48.005.77.122.747.679-.028.637.013 1.277-.008 1.915-.017.52.216.73.722.724.665-.01 1.33.019 1.996.009.623-.01.651.396.661.855.011.507-.24.65-.71.629-.568-.027-1.14.003-1.709-.004-.877-.01-.948.05-.955.9-.005.615-.016 1.23 0 1.845.015.53-.295.625-.73.626-.425 0-.766-.07-.765-.6 0-.614-.005-1.229-.012-1.844-.01-.885-.047-.92-.93-.927-.26-.002-.522 0-.783 0v-.002c-.262 0-.527-.03-.784.005-.685.095-.863-.225-.829-.852.026-.467.236-.63.66-.632.57-.002 1.14 0 1.71-.009.861-.012.946-.094.956-.93.006-.567.015-1.135.004-1.702-.01-.53.264-.691.759-.685zm16.883 5.335c.542 0 .57.354.58.77.011.449-.097.742-.611.74-.737-.004-1.475 0-2.213 0-.69 0-1.38-.002-2.07 0-.508.002-.631-.292-.63-.739.003-.423.055-.762.59-.762 1.452 0 2.903-.005 4.354-.009zm-.023-4.002c.654-.002.578.46.604.89.03.49-.214.604-.647.591-.688-.02-1.377-.005-2.066-.005v-.005c-.736 0-1.473-.01-2.21.004-.494.009-.587-.286-.593-.687-.007-.408.019-.783.566-.784l4.346-.004zM13.81 1.517c-3.616.02-7.23.005-10.846.017-1.112.003-1.498.394-1.5 1.513-.011 3.6.003 7.199-.015 10.798-.002.596.185.857.817.854 3.853-.018 7.707-.021 11.56-.001.662.003.87-.247.861-.882-.026-1.894-.01-3.788-.008-5.682 0-1.918-.02-3.837.01-5.754.011-.66-.24-.866-.88-.863zm3.188.003c-.624-.003-.83.25-.827.849.016 3.835.019 7.67.002 11.504-.003.617.22.833.835.825 1.926-.026 3.852-.01 5.778-.008 1.926 0 3.852-.015 5.778.01.606.007.846-.189.843-.817-.02-3.622-.005-7.244-.014-10.865-.002-1.025-.45-1.483-1.481-1.486-3.638-.012-7.276.004-10.914-.012zm5.76 8.907c.594.001 1.033.435 1.04 1.027.006.59-.43 1.045-1.014 1.058-.576.013-1.06-.431-1.087-.999-.03-.598.449-1.088 1.061-1.086zM5.641 4.829c.201.014.32.135.437.252.423.416.848.832 1.265 1.254.7.71.698.711 1.38.033.386-.386.797-.75 1.154-1.162.393-.452.686-.407 1.1.002.407.401.399.673-.012 1.039-.46.41-.858.89-1.324 1.293-.466.402-.409.716.014 1.1.492.446.927.956 1.422 1.399.451.403.152.646-.13.919-.271.262-.503.61-.923.159-.5-.539-1.044-1.038-1.56-1.563-.293-.298-.547-.302-.844.008-.51.531-1.056 1.027-1.562 1.56-.374.395-.618.161-.875-.122-.246-.271-.629-.504-.184-.927.516-.49.996-1.02 1.521-1.5.354-.325.409-.58.026-.928-.508-.463-.98-.966-1.457-1.463-.153-.16-.43-.316-.254-.59.204-.318.476-.587.806-.763zm20.51 2.486c.557-.003.75.241.75.774 0 .563-.261.738-.79.729-1.115-.021-2.231-.007-3.347-.008-1.116 0-2.231-.016-3.347.006-.564.011-.743-.237-.74-.77.004-.507.187-.732.71-.73 2.254.012 4.51.013 6.764 0zm-3.399-3.567c.608 0 1.072.487 1.048 1.1-.024.582-.48.998-1.078.98-.578-.017-1.04-.487-1.028-1.046.012-.551.506-1.034 1.058-1.034z" mask="url(#prefix__b)"/>
    </g>
</svg>
