<svg xmlns="http://www.w3.org/2000/svg" width="31" height="31" viewBox="0 0 31 31">
  <path fill="#FFA828" d="M2.62,0.149 C12.037,0.169 19.454,0.163 28.871,0.163 C31.187,0.163 30.918,1.796 30.916,3.314 C30.9,11.461 30.909,19.608 30.906,27.755 C30.904,29.809 29.791,30.917 27.726,30.918 C19.543,30.922 11.359,30.912 3.176,30.9290178 C1.647,30.932 0.014,30.557 0.014,28.893 C0.014,19.518 0,11.571 0,2.196 C0,-0.079 2.106,0.148 2.62,0.149 Z M13.806,16.2439343 C9.973,16.269 6.14,16.262 2.306,16.248 C1.707,16.246 1.446,16.448 1.44897445,17.072 C1.465,20.698 1.448,24.325 1.46,27.952 C1.464,28.97 1.932,29.41 2.971,29.412 C6.59,29.419 10.209,29.402 13.828,29.4250514 C14.487,29.429 14.7,29.2 14.689,28.552 C14.657,26.656 14.678,24.76 14.678,22.863 C14.678,20.967 14.658,19.071 14.688,17.175 C14.7,16.519 14.516,16.239 13.806,16.2439343 L13.806,16.2439343 Z M17.039,16.243974 C16.383,16.241 16.16,16.497 16.168,17.13 C16.191,19.025 16.176,20.92 16.176,22.815 L16.174,22.815 C16.174,24.735 16.185,26.653 16.1659014,28.572 C16.161,29.161 16.345,29.428 16.986,29.4240443 C20.626,29.404 24.267,29.42 27.908,29.408 C28.938,29.404 29.385,28.953 29.388,27.916 C29.4,24.291 29.385,20.666 29.4030292,17.042 C29.406,16.452 29.178,16.243974 28.604,16.246 C24.749,16.258 20.894,16.262 17.039,16.243974 L17.039,16.243974 Z M8.042,18.75 C8.522,18.755 8.812,18.872 8.789,19.429 C8.761,20.066 8.802,20.706 8.781,21.344 C8.764,21.864 8.997,22.074 9.503,22.068 C10.168,22.058 10.833,22.087 11.499,22.077 C12.122,22.067 12.15,22.473 12.16,22.932 C12.171,23.439 11.92,23.582 11.45,23.561 C10.882,23.534 10.31,23.564 9.741,23.557 C8.864,23.547 8.793,23.607 8.786,24.457 C8.781,25.072 8.77,25.687 8.786,26.302 C8.801,26.832 8.491,26.927 8.056,26.928 C7.631,26.928 7.29,26.858 7.291,26.328 C7.291,25.714 7.286,25.099 7.279,24.484 C7.269,23.599 7.232,23.564 6.349,23.557 C6.089,23.555 5.827,23.557 5.566,23.557 L5.566,23.555 C5.304,23.555 5.039,23.525 4.782,23.56 C4.097,23.655 3.919,23.335 3.953,22.708 C3.979,22.241 4.189,22.078 4.613,22.076 C5.183,22.074 5.753,22.076 6.323,22.067 C7.184,22.055 7.269,21.973 7.279,21.137 C7.285,20.57 7.294,20.002 7.283,19.435 C7.273,18.905 7.547,18.744 8.042,18.75 L8.042,18.75 Z M24.925,24.085 C25.467,24.085 25.495,24.439 25.505,24.855 C25.516,25.304 25.408,25.597 24.894,25.5950102 C24.157,25.591 23.419,25.5950102 22.681,25.5950102 C21.991,25.5950102 21.301,25.593 20.611,25.5950102 C20.103,25.597 19.98,25.303 19.980994,24.856 C19.984,24.433 20.036,24.094 20.571,24.094 C22.023,24.094 23.474,24.089 24.925,24.085 L24.925,24.085 Z M24.902,20.0829935 C25.556,20.081 25.48,20.543 25.506,20.973 C25.536,21.463 25.292,21.577 24.859,21.564 C24.171,21.544 23.482,21.559 22.793,21.559 L22.793,21.554 C22.057,21.554 21.32,21.544 20.583,21.558 C20.089,21.567 19.996,21.272 19.99,20.871 C19.983,20.463 20.009,20.088 20.556,20.087 L24.902,20.0829935 L24.902,20.0829935 Z M13.81,1.58896779 C10.194,1.609 6.58,1.594 2.964,1.606 C1.852,1.609 1.466,2 1.464,3.119 C1.453,6.719 1.467,10.318 1.44898416,13.917 C1.447,14.513 1.634,14.774 2.266,14.7710256 C6.119,14.753 9.973,14.75 13.826,14.77 C14.488,14.773 14.696,14.523 14.687,13.888 C14.661,11.994 14.677,10.1 14.679,8.206 C14.679,6.288 14.659,4.369 14.689,2.452 C14.7,1.792 14.449,1.586 13.809,1.58896779 L13.81,1.58896779 Z M16.998,1.59197365 C16.374,1.589 16.168,1.842 16.1709678,2.441 C16.187,6.276 16.19,10.111 16.173,13.945 C16.17,14.562 16.393,14.778 17.008,14.77 C18.934,14.744 20.86,14.76 22.786,14.762 C24.712,14.762 26.638,14.747 28.564,14.772 C29.17,14.779 29.41,14.583 29.4070277,13.955 C29.387,10.333 29.402,6.711 29.393,3.09 C29.391,2.065 28.943,1.607 27.912,1.604 C24.274,1.59197365 20.636,1.608 16.998,1.59197365 L16.998,1.59197365 Z M22.758,10.4989939 C23.352,10.5 23.791,10.934 23.798,11.526 C23.804,12.116 23.368,12.571 22.784,12.584 C22.208,12.597 21.724,12.153 21.697,11.585 C21.667,10.987 22.146,10.497 22.758,10.4989939 L22.758,10.4989939 Z M5.641,4.901 C5.842,4.915 5.961,5.036 6.078,5.153 C6.501,5.569 6.926,5.985 7.343,6.407 C8.043,7.117 8.041,7.118 8.723,6.44 C9.109,6.054 9.52,5.69 9.877,5.278 C10.27,4.826 10.563,4.871 10.977,5.28 C11.384,5.681 11.376,5.953 10.965,6.319 C10.505,6.729 10.107,7.209 9.641,7.612 C9.175,8.014 9.232,8.328 9.655,8.712 C10.147,9.158 10.582,9.668 11.077,10.111 C11.528,10.514 11.229,10.757 10.947,11.03 C10.676,11.292 10.444,11.64 10.024,11.189 C9.524,10.65 8.98,10.151 8.464,9.626 C8.171,9.328 7.917,9.324 7.62,9.634 C7.11,10.165 6.564,10.661 6.058,11.194 C5.684,11.589 5.44,11.355 5.183,11.072 C4.937,10.801 4.554,10.568 4.999,10.145 C5.515,9.655 5.995,9.125 6.52,8.645 C6.874,8.32 6.929,8.065 6.546,7.717 C6.038,7.254 5.566,6.751 5.089,6.254 C4.936,6.094 4.659,5.938 4.835,5.664 C5.039,5.346 5.311,5.077 5.641,4.901 L5.641,4.901 Z M26.151,7.387 C26.708,7.384 26.901,7.628 26.901,8.161 C26.901,8.724 26.64,8.899 26.111,8.89 C24.996,8.869 23.88,8.883 22.764,8.882 C21.648,8.882 20.533,8.866 19.417,8.888 C18.853,8.899 18.674,8.651 18.676963,8.118 C18.681,7.611 18.864,7.386 19.387,7.388 C21.641,7.4 23.897,7.401 26.151,7.388 L26.151,7.387 Z M22.752,3.82 C23.36,3.82 23.824,4.307 23.8,4.92 C23.776,5.502 23.32,5.918 22.722,5.9 C22.144,5.883 21.682,5.413 21.694,4.854 C21.706,4.303 22.2,3.82 22.752,3.82 L22.752,3.82 Z"/>
</svg>
