<svg xmlns="http://www.w3.org/2000/svg" width="500" height="512" viewBox="0 0 500 512">
  <g>
    <path d="M468.988,49.349 L31.012,49.349 C14.005,49.349 0.169,63.185 0.169,80.192 L0.169,481.156 C0.169,498.164 14.005,512 31.012,512 L468.988,512 C485.995,512 499.831,498.164 499.831,481.157 L499.831,80.193 C499.831,63.186 485.995,49.349 468.988,49.349 Z M462.82,474.988 L37.181,474.988 L37.181,86.361 L462.82,86.361 L462.82,474.988 L462.82,474.988 Z"/>
    <rect width="462.651" height="37.012" x="18.675" y="172.723"/>
    <path d="M129.711 0C119.49 0 111.205 8.285 111.205 18.506L111.205 117.205C111.205 127.426 119.49 135.711 129.711 135.711 139.932 135.711 148.217 127.426 148.217 117.205L148.217 18.506C148.217 8.285 139.932 0 129.711 0zM376.458 0C366.237 0 357.952 8.285 357.952 18.506L357.952 117.205C357.952 127.426 366.237 135.711 376.458 135.711 386.679 135.711 394.964 127.426 394.964 117.205L394.964 18.506C394.964 8.285 386.679 0 376.458 0z"/>
    <path d="M321.217,321 L185.506,321 C175.285,321 167,329.285 167,339.506 C167,349.727 175.285,358.012 185.506,358.012 L321.217,358.012 C331.438,358.012 339.723,349.727 339.723,339.506 C339.723,329.285 331.438,321 321.217,321 Z" transform="rotate(90 253.361 339.506)"/>
    <path d="M321.217,321 L185.506,321 C175.285,321 167,329.285 167,339.506 C167,349.727 175.285,358.012 185.506,358.012 L321.217,358.012 C331.438,358.012 339.723,349.728 339.723,339.506 C339.723,329.284 331.438,321 321.217,321 Z"/>
  </g>
</svg>
