<svg xmlns="http://www.w3.org/2000/svg" width="546" height="403" viewBox="0 0 546 403">
  <path  d="M540.743,210.356 C536.564,201.602 530.175,194.892 521.62,190.236 C513.054,185.571 503.633,183.241 493.356,183.241 L438.537,183.241 L438.537,137.558 C438.537,120.047 432.254,105.01 419.694,92.447 C407.128,79.885 392.09,73.605 374.583,73.605 L219.268,73.605 L219.268,64.469 C219.268,46.958 212.985,31.921 200.426,19.362 C187.862,6.8 172.826,0.516 155.315,0.516 L63.953,0.516 C46.442,0.516 31.405,6.799 18.842,19.362 C6.28,31.922 0,46.959 0,64.47 L0,338.558 C0,356.066 6.28,371.103 18.842,383.662 C31.405,396.227 46.442,402.511 63.953,402.511 L374.589,402.511 C387.337,402.511 400.659,399.226 414.56,392.656 C428.455,386.093 439.488,377.762 447.673,367.675 L531.9,264.037 C540.654,253 545.027008,241.584 545.027008,229.777 C545.027008,222.923 543.603,216.458 540.743,210.356 Z M36.547,64.474 C36.547,56.863 39.21,50.39 44.54,45.06 C49.866,39.733 56.339,37.067 63.954,37.067 L155.319,37.067 C162.934,37.067 169.403,39.73 174.733,45.06 C180.06,50.39 182.726,56.863 182.726,64.474 L182.726,82.748 C182.726,90.364 185.393,96.835 190.72,102.162 C196.047,107.489 202.518,110.156 210.132,110.156 L374.584,110.156 C382.195,110.156 388.673,112.822 394.002,118.149 C399.326,123.475 401.992,129.948 401.992,137.563 L401.992,183.245 L182.725,183.245 C169.784,183.245 156.456,186.529 142.752,193.096 C129.046,199.663 118.008,207.989 109.632,218.082 L36.547,308.013 L36.547,64.474 Z M503.345,240.917 L419.406,344.554 C414.653,350.453 407.894,355.497 399.134,359.679 C390.38,363.868 382.195,365.962 374.583,365.962 L63.953,365.962 C53.865,365.962 48.822,362.629 48.822,355.97 C48.822,352.924 50.535,349.118 53.962,344.543 L137.9,240.91 C142.849,235.007 149.65,230.014 158.313,225.921 C166.971,221.828 175.109,219.781 182.724,219.781 L493.355,219.781 C503.443,219.781 508.484,223.114 508.484,229.774 C508.484,233.019 506.778,236.728 503.345,240.917 Z"/>
</svg>
