<svg xmlns="http://www.w3.org/2000/svg" viewBox="0 0 70.98 73.12"><defs><style>.cls-1{fill:#485d68;}</style></defs><g id="Layer_2" data-name="Layer 2"><g id="Layer_1-2" data-name="Layer 1"><path class="cls-1" d="M61.5,0H15.92A9.49,9.49,0,0,0,6.44,9.48v1.37H4.66A4.66,4.66,0,0,0,0,15.51v.65a4.66,4.66,0,0,0,4.66,4.66H6.44V31.57H4.66A4.67,4.67,0,0,0,0,36.24v.64a4.67,4.67,0,0,0,4.66,4.67H6.44V52.29H4.66A4.67,4.67,0,0,0,0,57v.64a4.67,4.67,0,0,0,4.66,4.67H6.44v1.37a9.5,9.5,0,0,0,9.48,9.48H61.5A9.49,9.49,0,0,0,71,63.64V9.48A9.49,9.49,0,0,0,61.5,0ZM2.8,57.6V57A1.86,1.86,0,0,1,4.66,55.1h6.16A1.86,1.86,0,0,1,12.68,57v.64a1.86,1.86,0,0,1-1.86,1.86H4.66A1.86,1.86,0,0,1,2.8,57.6Zm6.45,4.67h1.57a4.68,4.68,0,0,0,4.67-4.67V57a4.68,4.68,0,0,0-4.67-4.67H9.25V41.55h1.57a4.68,4.68,0,0,0,4.67-4.67v-.64a4.68,4.68,0,0,0-4.67-4.67H9.25V20.82h1.57a4.67,4.67,0,0,0,4.67-4.66v-.65a4.67,4.67,0,0,0-4.67-4.66H9.25V9.48A6.68,6.68,0,0,1,15.92,2.8H61.5a6.69,6.69,0,0,1,6.68,6.68v8.44H58.86V2.9H57.45V70.31H15.92a6.67,6.67,0,0,1-6.67-6.67ZM2.8,36.88v-.64a1.86,1.86,0,0,1,1.86-1.86h6.16a1.86,1.86,0,0,1,1.86,1.86v.64a1.86,1.86,0,0,1-1.86,1.86H4.66A1.86,1.86,0,0,1,2.8,36.88Zm0-20.72v-.65a1.87,1.87,0,0,1,1.86-1.86h6.16a1.86,1.86,0,0,1,1.86,1.86v.65A1.86,1.86,0,0,1,10.82,18H4.66A1.87,1.87,0,0,1,2.8,16.16ZM68.18,35.45H58.86V19.33h9.32Zm0,17.53H58.86V36.85h9.32ZM58.86,70.31V54.38h9.32v9.26a6.68,6.68,0,0,1-6.68,6.67Z"/><path class="cls-1" d="M36.69,51.87a21.39,21.39,0,0,0,7.08-1.19,22.09,22.09,0,0,0,4.83-2.37,1.87,1.87,0,0,0,.53-2.58c-.68-1-2,.24-2.66.61a20.37,20.37,0,0,1-2.19,1.1A18.6,18.6,0,0,1,37,48.88a15.3,15.3,0,0,1-9.71-3.11,11.5,11.5,0,0,1-4.49-9.55,12.75,12.75,0,0,1,3.83-9.29q4.25-4.29,11.26-4.29a14.84,14.84,0,0,1,6.86,1.56,8.48,8.48,0,0,1,4.87,8.15,9.83,9.83,0,0,1-1.79,6.15c-1.19,1.55-2.37,2.32-3.55,2.32a1.52,1.52,0,0,1-1.32-.55,1.85,1.85,0,0,1-.41-1.16,3.75,3.75,0,0,1,.13-.92c.09-.35.24-.89.44-1.62L45,30a1.86,1.86,0,1,0-3.58-1l-.36,1.25a4.66,4.66,0,0,0-1.21-2.13,4.54,4.54,0,0,0-3.36-1.19,7.64,7.64,0,0,0-6.23,3.25,11.16,11.16,0,0,0-2.53,7,7.1,7.1,0,0,0,1.66,5A5.39,5.39,0,0,0,33.56,44a6,6,0,0,0,4.2-1.59A8.55,8.55,0,0,0,39.52,40a2.77,2.77,0,0,0,0,.39c0,.11,0,.22,0,.32a3.19,3.19,0,0,0,1,2.2A3.81,3.81,0,0,0,43.41,44a8.37,8.37,0,0,0,6.5-3.35,12,12,0,0,0,2.84-8,11.6,11.6,0,0,0-4.49-9.53,16.71,16.71,0,0,0-10.76-3.4,18,18,0,0,0-13.09,5A15.3,15.3,0,0,0,19.54,36.1a15.25,15.25,0,0,0,3.9,10.45Q28.14,51.86,36.69,51.87Zm1.81-14.3c-.94,2.24-2.15,3.35-3.62,3.35a2.29,2.29,0,0,1-2-.93,3.94,3.94,0,0,1-.69-2.43,10.31,10.31,0,0,1,1.55-5.16q1.55-2.67,3.69-2.67a2.26,2.26,0,0,1,1.77.74,2.68,2.68,0,0,1,.66,1.84A14.73,14.73,0,0,1,38.5,37.57Z"/></g></g></svg>