<svg xmlns="http://www.w3.org/2000/svg" width="55" height="55" viewBox="0 0 55 55">
    <g fill="none" fill-rule="evenodd">
        <g stroke="#FFF">
            <g>
                <g>
                    <g>
                        <g>
                            <path d="M25.7 11.045H11L6.8.545c2.1 0 4.2 0 6.3 2.1.94-1.199 2.1-2.1 5.25-2.145 3.15.045 4.22.691 5.25 2.145 2.1-2.1 4.2-2.1 6.3-2.1l-4.2 10.5zM25.7 11.045H11C6.8 15.245.5 22.621.5 29.945c0 10.085 7.904 18.3 17.85 18.848 9.948-.548 17.85-8.763 17.85-18.848 0-7.324-6.3-14.7-10.5-18.9z" transform="translate(-33 -282) translate(21 282) translate(12) translate(9 3)"/>
                            <path stroke-linecap="round" stroke-linejoin="round" d="M13.31 24.696c0-2.784 2.257-5.04 5.04-5.04 2.784 0 5.041 2.256 5.041 5.04M23.39 33.096c0 2.784-2.256 5.04-5.04 5.04-2.783 0-5.04-2.256-5.04-5.04M13.31 24.696c0 3.36 1.72 4.2 5.04 4.2 3.016 0 5.041.84 5.041 4.2" transform="translate(-33 -282) translate(21 282) translate(12) translate(9 3)"/>
                        </g>
                    </g>
                </g>
            </g>
        </g>
    </g>
</svg>
