<svg xmlns="http://www.w3.org/2000/svg" viewBox="0 0 61.7 80.66"><defs><style>.cls-1{fill:#364352;}</style></defs><g id="Layer_2" data-name="Layer 2"><g id="Layer_1-2" data-name="Layer 1"><path class="cls-1" d="M18,34.91a1.81,1.81,0,0,1-1.28-.53l-3.5-3.5,2.55-2.55,2.07,2.06,4.93-6.23,2.83,2.24-6.18,7.83a1.82,1.82,0,0,1-1.31.68Z"/><rect class="cls-1" x="31.3" y="27.69" width="16.86" height="3.61"/><rect class="cls-1" x="31.3" y="43.34" width="16.86" height="3.61"/><rect class="cls-1" x="31.3" y="58.99" width="16.86" height="3.61"/><path class="cls-1" d="M59.9,80.66H1.81A1.81,1.81,0,0,1,0,78.85V5.42A1.81,1.81,0,0,1,1.81,3.61H10V7.22H3.61V77.05H58.09V7.22H51.66V3.61H59.9a1.81,1.81,0,0,1,1.8,1.81V78.85A1.81,1.81,0,0,1,59.9,80.66Z"/><path class="cls-1" d="M18,50.49A1.82,1.82,0,0,1,16.67,50l-3.5-3.5,2.55-2.55L17.79,46l4.93-6.23L25.55,42,19.37,49.8a1.82,1.82,0,0,1-1.31.68Z"/><path class="cls-1" d="M18,66.21a1.77,1.77,0,0,1-1.28-.53l-3.5-3.5,2.55-2.55,2.07,2.07,4.93-6.24,2.83,2.24-6.18,7.83a1.82,1.82,0,0,1-1.31.68Z"/><path class="cls-1" d="M45,0H16.74a1.8,1.8,0,0,0-1.8,1.81V8a7.63,7.63,0,0,0,7.62,7.62H39.14A7.64,7.64,0,0,0,46.77,8V1.81A1.81,1.81,0,0,0,45,0ZM43.15,8a4,4,0,0,1-4,4H22.56a4,4,0,0,1-4-4V3.61h24.6Z"/></g></g></svg>