<svg xmlns="http://www.w3.org/2000/svg" width="100" height="100" viewBox="0 0 100 100">
    <g fill="none" fill-rule="evenodd">
        <g fill="#FFDA00">
            <g>
                <g>
                    <path d="M19.993 84c-.312 0-.556.095-.73.285-.175.19-.263.43-.263.719 0 .284.088.52.262.71.175.19.419.286.73.286.313 0 .559-.095.738-.285.18-.19.27-.427.27-.711 0-.29-.09-.529-.27-.719-.18-.19-.425-.285-.737-.285M19 96L21 96 21 87 19 87zM34.247 84L33.31 84 29.996 93.148 26.682 84 25.753 84 24.849 84 24 84 24 96 26.057 96 26.057 92.151 25.855 86.734 29.268 96 30.725 96 34.142 86.736 33.935 92.151 33.935 96 36 96 36 84 35.151 84zM41.65 94.183c-.31.158-.674.237-1.09.237-.457 0-.81-.114-1.062-.341-.25-.227-.376-.512-.376-.854 0-.444.19-.796.569-1.055.379-.26.946-.39 1.698-.39h1.13v1.606c-.038.07-.082.14-.137.212-.177.232-.42.428-.732.585m2.99-.365v-3.826c0-.668-.155-1.225-.466-1.668-.31-.444-.737-.776-1.279-.995-.542-.22-1.16-.329-1.856-.329-.782 0-1.46.126-2.033.377s-1.016.581-1.33.99c-.314.41-.47.847-.47 1.312h2.121c0-.225.066-.425.197-.601.131-.177.317-.317.556-.422.24-.104.52-.156.839-.156.536 0 .937.134 1.202.4.265.269.398.627.398 1.076v.577h-1.284c-1.352 0-2.395.247-3.131.738C37.368 91.783 37 92.49 37 93.41c0 .492.135.935.406 1.328s.644.702 1.117.926c.473.225 1.012.337 1.617.337.48 0 .9-.07 1.262-.212s.676-.324.941-.546c.092-.077.175-.155.254-.235l.003.022c.054.332.13.602.227.81H45v-.136c-.114-.23-.203-.5-.265-.81-.063-.31-.094-.668-.094-1.075M51.697 91.388h2.306v2.262c-.087.096-.212.198-.375.305-.163.107-.383.198-.662.272-.278.075-.634.113-1.067.113-.604 0-1.12-.154-1.548-.462-.429-.307-.757-.754-.987-1.34-.23-.585-.344-1.3-.344-2.145v-.802c0-.834.098-1.544.294-2.13.196-.585.492-1.032.89-1.34.397-.307.892-.46 1.486-.46.505 0 .92.09 1.245.272.325.182.575.43.751.742.175.313.292.673.348 1.079h1.958c-.083-.732-.289-1.38-.619-1.945-.33-.564-.8-1.007-1.412-1.328-.611-.32-1.382-.481-2.31-.481-.96 0-1.787.22-2.48.658-.694.439-1.23 1.076-1.606 1.913-.377.837-.565 1.849-.565 3.036v.786c0 1.182.204 2.193.611 3.032.408.84.974 1.479 1.699 1.917.725.439 1.562.658 2.511.658.83 0 1.526-.094 2.086-.28.56-.188 1.007-.411 1.342-.67.336-.26.586-.497.751-.71v-4.508h-4.303v1.556zM58 96L60 96 60 87 58 87zM58.993 84c-.312 0-.556.095-.73.285-.175.19-.263.43-.263.719 0 .284.088.52.262.71.175.19.419.286.73.286.313 0 .559-.095.738-.285.18-.19.27-.427.27-.711 0-.29-.09-.529-.27-.719-.18-.19-.425-.285-.737-.285M69.004 92.472L64.004 84 62 84 62 96 64.004 96 64.004 87.544 68.989 96 71 96 71 84 69.004 84zM78.95 90.682H75.13c.04-.262.098-.505.179-.726.156-.43.384-.765.686-1.003.301-.238.672-.357 1.113-.357.44 0 .793.091 1.058.273.265.182.46.42.582.714.123.294.19.61.2.946v.153zm2.05.577c0-.84-.142-1.578-.427-2.218-.284-.639-.714-1.139-1.289-1.5-.574-.36-1.297-.541-2.167-.541-.786 0-1.49.184-2.113.553-.622.37-1.111.89-1.468 1.56-.357.672-.536 1.46-.536 2.363v.329c0 .786.176 1.496.527 2.13.352.633.854 1.136 1.507 1.507.652.372 1.428.558 2.326.558.892 0 1.624-.167 2.196-.501.572-.335 1-.708 1.285-1.12l-1.088-1.042c-.273.342-.598.604-.975.786-.376.182-.807.273-1.293.273-.502 0-.934-.114-1.297-.341-.362-.227-.639-.536-.828-.927-.149-.305-.237-.643-.27-1.01H81v-.859z" transform="translate(-10 -24) translate(10 24)"/>
                    <g>
                        <path d="M57.79 47.36c1.318.994 1.98 2.375 1.865 3.887-.112 1.446-.898 2.813-2.107 3.735-.23-.5-.557-.942-.997-1.306-1.079-.89-3.455-1.657-5.362-.579-.357.202-.484.657-.283 1.017.201.359.654.486 1.011.284 1.21-.684 2.951-.179 3.692.432 1.803 1.487.606 6.035-1.587 8.81-3.482 4.407-7.864 4.973-11.293 4.973-.28 0-.538.16-.664.412-.922 1.855-3.498 4.26-6.817 3.285-2.392-.703-3.506-2.44-3.506-5.468V50.837c.23-1.479 1.022-2.731 2.359-3.722 2.198-1.63 5.401-2.165 7.43-1.85.405.065.785-.215.848-.623.062-.407-.215-.788-.62-.851-1.03-.16-2.345-.138-3.72.115.024-.101.046-.204.06-.31.148-1.02-.192-2.074-.934-2.89-.276-.304-.746-.326-1.049-.048-.302.278-.324.75-.047 1.054.447.492.646 1.085.561 1.67-.065.452-.303.847-.638 1.074-.975.35-1.925.829-2.773 1.457-.57.423-1.062.895-1.477 1.408V35.5h26.361c1.77 1.28 2.65 3.566 2.356 6.169-.24 2.128-1.262 3.936-2.485 4.396-.254.095-.436.322-.474.592-.039.27.072.54.29.704zM26.751 72.31c-3.318.975-5.895-1.43-6.817-3.285-.126-.253-.383-.412-.664-.412-3.429 0-7.81-.566-11.293-4.973-2.97-3.758-3.02-7.521-1.352-8.987 1.032-.908 3.044-1.03 4.423-.58-.04 2.043.465 4.189.939 6.19.08.344.385.575.721.575.057 0 .115-.007.173-.02.399-.096.645-.498.55-.9-.569-2.407-.992-4.47-.884-6.24.006-.04.009-.08.008-.12.096-1.263.47-2.374 1.27-3.35 2.118-2.59 4.579-3.754 8.228-3.892.41-.015.73-.362.714-.774-.015-.412-.364-.734-.77-.718-1.625.062-3.04.309-4.31.763.348-.916.463-1.89.317-2.868-.287-1.92-1.51-3.542-3.19-4.233-.38-.156-.813.027-.968.409-.155.381.026.817.406.973 1.181.485 2.077 1.692 2.284 3.073.138.924.073 2.713-1.89 4.346-.692.554-1.343 1.208-1.968 1.972-.824 1.007-1.277 2.125-1.487 3.3-1.78-.478-4.119-.283-5.543.97-.484.426-.86.931-1.129 1.504-1.247-.923-2.061-2.313-2.175-3.786-.116-1.512.547-2.893 1.866-3.887.217-.164.328-.434.29-.704-.04-.27-.221-.497-.476-.592-1.222-.46-2.244-2.268-2.484-4.396-.294-2.603.586-4.89 2.355-6.169H30.257v20.486c-4.198 4.1-9.041 2.958-11.58 1.893-.378-.158-.813.022-.971.402-.158.38.02.818.4.976 1.264.53 3.033 1.075 5.027 1.125-.99 2.237-2.158 3.025-3.195 3.489-.374.167-.543.608-.377.984.123.279.394.444.679.444.1 0 .203-.02.3-.065 1.326-.591 2.986-1.69 4.23-4.93 1.779-.214 3.665-.89 5.488-2.335v8.874c0 3.028-1.114 4.765-3.506 5.468zM1.69 22.509c.193-.45.552-.804 1.011-.995l10.777-4.489-2.815 6.833-7.677 3.197-1.311-3.18c-.18-.438-.175-.923.015-1.366zm23.49-4.697L12.603 23.05l2.815-6.833 12.576-5.237-2.815 6.832zm14.206-5.917l-12.267 5.11 2.815-6.833 12.267-5.11-2.815 6.833zM50.422 1.64c.94-.392 2.011.03 2.386.94l1.31 3.18-12.791 5.328 2.814-6.832 6.281-2.616zM11.75 34.006H3.394v-5.23H16.95l-5.201 5.23zm15.6 0h-13.5l5.201-5.23h13.5l-5.2 5.23zm15.6 0h-13.5l5.202-5.23h13.5l-5.201 5.23zm15.724 0H45.05l5.201-5.23h8.422v5.23zm3.261 7.83c.296-2.616-.416-4.987-1.93-6.633.095-.126.154-.28.154-.45V28.03c0-.412-.333-.747-.743-.747H6.316l5.2-2.166 14.516-6.045 14.207-5.917 15.134-6.303c.182-.076.326-.221.401-.404.076-.183.076-.388 0-.571l-1.594-3.87C53.492.337 51.552-.448 49.854.26l-6.565 2.734L29.082 8.91l-14.516 6.046-12.432 5.178c-.819.34-1.46.974-1.807 1.784-.35.816-.358 1.714-.023 2.527l1.539 3.733v6.574c0 .17.058.324.153.45C.482 36.849-.23 39.22.066 41.836c.248 2.202 1.164 4.058 2.434 5.052-1.19 1.23-1.765 2.786-1.635 4.474.16 2.075 1.378 4.016 3.216 5.175-.102.737-.073 1.548.089 2.422.347 1.877 1.312 3.922 2.646 5.61 3.755 4.753 8.56 5.48 12.007 5.533.906 1.608 2.23 2.78 3.855 3.407.845.326 1.753.491 2.64.491.638 0 1.265-.085 1.85-.257 1.82-.535 3.097-1.587 3.832-3.135.735 1.548 2.012 2.6 3.831 3.135.586.172 1.213.257 1.851.257.887 0 1.794-.165 2.64-.49 1.624-.627 2.95-1.8 3.855-3.408 3.446-.053 8.252-.78 12.007-5.533 1.64-2.076 3.029-5.424 2.761-8.05 1.824-1.16 3.031-3.092 3.19-5.157.13-1.688-.446-3.244-1.635-4.474 1.27-.994 2.186-2.85 2.434-5.052z" transform="translate(-10 -24) translate(10 24) translate(19 2)"/>
                        <path d="M45.973 40.065c-.366.167-.531.607-.367.983 1.62 3.722.948 7.428-.362 9.296-1.341 1.913-3.185 3.715-7.554 3.941-.4.02-.71.37-.689.78.02.398.34.707.725.707h.037c1.41-.073 2.596-.3 3.605-.636-.514 2.947.971 5.64 3.04 6.775.11.06.227.089.343.089.26 0 .51-.142.641-.393.19-.362.057-.813-.297-1.007-2.249-1.235-2.774-4.127-2.012-6.22 1.54-.87 2.544-2.03 3.342-3.168 1.544-2.203 2.362-6.512.508-10.77-.163-.376-.593-.545-.96-.377" transform="translate(-10 -24) translate(10 24) translate(19 2)"/>
                    </g>
                </g>
            </g>
        </g>
    </g>
</svg>
