<svg xmlns="http://www.w3.org/2000/svg" viewBox="0 0 286.06 278.72"><defs><style>.cls-1{fill:#fff;}</style></defs><g id="Layer_2" data-name="Layer 2"><g id="Layer_1-2" data-name="Layer 1"><path class="cls-1" d="M284.83,278.72H226.67v-8h51.1c.71-9.59,1-37-17.22-49.93-6.89-4.9-14.84-7.39-21.71-9.18-3.66-1-7.34-1.78-11.24-2.65-18.08-4-38.56-8.58-53.38-28.16-.76-.94-3.08-4.32-2.77-10.59.4-8.1,5-17.59,13.69-28.21,23.3-28.46,17.75-74.8,15.49-88.32C196.3,27.64,171.54,8,143,8S89.76,27.64,85.43,53.68c-2.26,13.52-7.8,59.87,15.49,88.32,8.69,10.62,13.3,20.11,13.7,28.21.31,6.27-2,9.65-2.78,10.59C97,200.39,76.52,204.94,58.44,209c-3.74.83-7.27,1.62-10.79,2.53-7,1.81-15.17,4.34-22.13,9.3-18.22,13-17.94,40.33-17.23,49.93h51.1v8H1.23l-.51-3.4c-.26-1.73-6.06-42.42,20.16-61,8-5.71,17-8.53,24.77-10.53,3.65-.94,7.41-1.78,11.06-2.59,17.57-3.9,35.75-8,48.81-25.25l.14-.19c.5-.79,5-9.15-10.93-28.65-9.5-11.61-15.64-27-18.23-45.69-2.68-19.29-.92-37.3,1-49C82.51,22.51,110.66,0,143,0s60.53,22.51,65.49,52.36a165.9,165.9,0,0,1,1,49c-2.6,18.71-8.73,34.08-18.24,45.7-15.92,19.46-11.43,27.82-10.93,28.63l.18.17,0,0c13,17.3,31.22,21.34,48.78,25.25,3.8.85,7.73,1.72,11.53,2.72,7.13,1.85,16.33,4.71,24.33,10.4,26.21,18.63,20.41,59.32,20.15,61Z"/></g></g></svg>