<svg id="svg" version="1.1" xmlns="http://www.w3.org/2000/svg" xmlns:xlink="http://www.w3.org/1999/xlink" width="400" height="340.08097165991904" viewBox="0, 0, 400,340.08097165991904"><g id="svgg"><path id="path0" d="M158.163 0.471 C 158.163 0.729,157.857 1.021,157.483 1.119 C 157.108 1.217,156.887 1.159,156.992 0.989 C 157.097 0.820,156.676 0.736,156.057 0.803 C 155.216 0.894,154.905 1.109,154.823 1.653 C 154.745 2.177,154.459 2.391,153.803 2.417 C 151.622 2.504,151.530 2.540,151.558 3.316 C 151.585 4.095,151.185 4.239,149.405 4.095 C 148.682 4.036,148.586 4.153,148.503 5.187 C 148.485 5.421,148.164 5.695,147.792 5.797 C 147.419 5.899,146.924 6.358,146.691 6.817 C 146.459 7.277,146.266 7.533,146.264 7.386 C 146.261 7.239,145.941 7.289,145.552 7.497 C 145.163 7.705,144.922 8.076,145.017 8.322 C 145.126 8.606,144.828 8.840,144.200 8.966 C 143.548 9.097,143.272 9.323,143.390 9.630 C 143.575 10.112,142.567 11.184,142.210 10.884 C 142.098 10.791,141.959 11.127,141.901 11.631 C 141.834 12.209,141.634 12.486,141.360 12.381 C 140.617 12.096,140.032 13.176,140.240 14.452 C 140.425 15.595,140.056 16.342,139.638 15.667 C 139.149 14.875,138.436 15.759,138.459 17.128 C 138.479 18.263,138.544 18.405,138.797 17.857 L 139.110 17.177 139.024 17.857 C 138.970 18.289,138.630 18.584,138.092 18.665 C 137.305 18.783,137.293 18.812,137.925 19.066 C 138.514 19.303,138.477 19.343,137.650 19.364 C 137.094 19.378,136.784 19.532,136.908 19.733 C 137.026 19.924,137.264 19.991,137.438 19.883 C 137.613 19.776,137.755 19.833,137.755 20.012 C 137.755 20.190,137.533 20.421,137.261 20.525 C 136.975 20.635,136.825 21.015,136.905 21.430 C 137.015 22.002,136.894 22.125,136.304 22.042 C 135.671 21.954,135.551 22.124,135.463 23.231 C 135.379 24.282,135.466 24.504,135.927 24.421 C 136.239 24.365,136.560 24.549,136.640 24.830 C 136.743 25.187,136.700 25.218,136.497 24.933 C 135.916 24.118,135.414 25.023,135.479 26.766 C 135.515 27.728,135.468 28.510,135.374 28.503 C 134.640 28.450,134.348 28.629,134.569 28.997 C 134.768 29.328,134.706 29.326,134.291 28.990 C 133.822 28.610,133.759 28.733,133.772 30.010 C 133.780 30.809,133.952 31.575,134.155 31.712 C 134.406 31.882,134.388 31.964,134.099 31.968 C 133.865 31.970,133.676 32.241,133.679 32.568 C 133.683 33.077,133.732 33.089,134.014 32.653 C 134.195 32.372,134.346 32.304,134.349 32.500 C 134.351 32.696,134.197 33.014,134.005 33.206 C 133.776 33.434,133.689 37.703,133.750 45.604 L 133.844 57.653 107.328 57.576 C 86.694 57.516,80.754 57.592,80.548 57.916 C 80.403 58.146,80.319 121.241,80.362 198.129 L 80.440 337.925 80.611 199.320 L 80.783 60.714 80.953 199.542 C 81.046 275.898,81.008 338.299,80.867 338.213 C 80.727 338.126,80.612 338.370,80.612 338.755 L 80.612 339.456 200.085 339.456 L 319.558 339.456 319.475 198.895 C 319.430 121.586,319.391 58.159,319.390 57.946 C 319.389 57.733,319.196 57.566,318.963 57.574 C 318.729 57.583,306.790 57.566,292.432 57.537 L 266.327 57.483 266.327 43.027 L 266.327 28.571 265.561 28.518 C 265.140 28.488,264.599 28.472,264.359 28.482 C 264.025 28.496,264.014 28.389,264.312 28.029 C 264.614 27.665,264.579 27.512,264.154 27.349 C 263.852 27.233,263.605 26.983,263.605 26.793 C 263.605 26.599,263.838 26.641,264.135 26.887 C 264.705 27.360,264.743 26.166,264.187 25.279 C 264.048 25.058,264.090 24.781,264.280 24.663 C 265.241 24.070,264.561 21.597,263.581 22.122 C 263.180 22.337,262.893 22.332,262.756 22.110 C 262.640 21.922,262.714 21.769,262.921 21.769 C 263.151 21.769,263.266 21.177,263.217 20.238 C 263.148 18.888,263.045 18.707,262.351 18.707 C 261.919 18.707,261.565 18.536,261.565 18.326 C 261.565 18.074,261.362 18.100,260.969 18.405 C 260.402 18.844,260.402 18.832,260.969 18.165 C 261.684 17.323,261.753 15.791,261.088 15.536 C 260.342 15.250,260.150 15.700,260.805 16.197 C 261.348 16.610,261.335 16.646,260.629 16.656 C 259.818 16.667,259.776 16.537,259.788 14.028 C 259.793 12.791,259.679 12.551,258.998 12.381 C 258.529 12.263,258.156 11.880,258.090 11.448 C 258.028 11.044,257.794 10.751,257.570 10.796 C 257.173 10.876,256.553 10.034,256.507 9.354 C 256.494 9.167,256.113 8.967,255.660 8.910 C 255.008 8.827,254.875 8.656,255.022 8.091 C 255.144 7.627,255.079 7.457,254.839 7.605 C 254.635 7.731,254.371 7.676,254.252 7.483 C 254.132 7.290,253.892 7.220,253.718 7.327 C 253.436 7.501,253.240 6.764,253.368 6.016 C 253.394 5.864,252.938 5.815,252.353 5.907 C 250.883 6.138,250.340 5.855,250.340 4.856 C 250.340 4.129,250.214 4.026,249.490 4.165 C 248.930 4.272,248.625 4.169,248.597 3.864 C 248.574 3.610,248.535 3.210,248.511 2.976 C 248.483 2.713,247.905 2.541,246.993 2.524 C 246.183 2.509,245.418 2.345,245.294 2.159 C 245.170 1.973,244.790 1.719,244.451 1.593 C 244.112 1.468,243.907 1.248,243.996 1.104 C 244.085 0.961,243.329 0.851,242.317 0.859 C 241.034 0.871,240.476 0.743,240.476 0.438 C 240.476 -0.170,235.504 -0.182,235.259 0.425 C 235.122 0.765,235.082 0.765,235.061 0.425 C 235.042 0.134,234.377 0.000,232.954 0.000 C 231.040 0.000,230.887 0.055,231.051 0.681 C 231.149 1.055,231.090 1.276,230.921 1.171 C 230.751 1.066,230.612 0.760,230.612 0.490 C 230.612 0.067,226.537 0.000,200.850 0.000 C 174.622 0.000,171.088 0.061,171.088 0.510 C 171.088 0.828,170.767 1.020,170.238 1.020 C 169.709 1.020,169.388 0.828,169.388 0.510 C 169.388 -0.160,164.780 -0.240,164.511 0.425 C 164.374 0.765,164.334 0.765,164.313 0.425 C 164.272 -0.221,158.163 -0.176,158.163 0.471 M250.935 6.946 C 250.935 7.596,250.844 7.686,250.501 7.372 C 250.262 7.152,250.206 6.921,250.376 6.859 C 250.546 6.796,250.598 6.605,250.492 6.434 C 250.387 6.262,250.443 6.122,250.618 6.122 C 250.792 6.122,250.935 6.493,250.935 6.946 M141.267 15.103 C 141.447 15.573,141.244 15.986,140.833 15.986 C 140.717 15.986,140.622 15.680,140.622 15.306 C 140.622 14.522,140.998 14.403,141.267 15.103 M263.852 23.463 C 263.879 23.833,263.761 24.224,263.588 24.331 C 263.415 24.438,263.358 24.303,263.462 24.032 C 263.567 23.760,263.488 23.437,263.288 23.314 C 263.089 23.190,262.925 23.319,262.925 23.599 C 262.925 23.880,262.748 24.219,262.532 24.352 C 262.317 24.486,262.216 24.456,262.310 24.287 C 262.404 24.118,262.575 23.712,262.692 23.384 C 262.980 22.575,263.789 22.630,263.852 23.463 M200.998 31.633 C 220.533 31.633,231.633 31.513,231.633 31.303 C 231.633 31.122,231.853 31.058,232.121 31.161 C 232.390 31.264,232.534 31.547,232.441 31.789 C 232.340 32.053,232.621 32.317,233.143 32.448 C 233.675 32.581,234.003 32.895,233.987 33.255 C 233.970 33.613,233.893 33.677,233.788 33.416 C 233.693 33.181,233.452 33.090,233.252 33.214 C 233.024 33.355,232.989 33.276,233.158 33.002 C 233.330 32.723,233.276 32.616,233.008 32.705 C 232.684 32.813,232.599 35.658,232.636 45.160 L 232.683 57.476 200.100 57.565 L 167.517 57.653 167.581 45.639 C 167.641 34.412,167.607 33.654,167.071 34.069 C 166.647 34.396,166.666 34.314,167.145 33.753 C 167.501 33.335,168.086 32.993,168.444 32.993 C 168.912 32.993,169.079 32.777,169.034 32.228 C 168.936 31.010,169.008 30.907,169.706 31.281 C 170.145 31.516,180.531 31.633,200.998 31.633 M166.545 35.034 C 166.821 35.034,166.956 35.180,166.846 35.359 C 166.542 35.852,165.643 35.379,165.673 34.743 C 165.690 34.390,165.763 34.340,165.872 34.609 C 165.966 34.843,166.269 35.034,166.545 35.034 M135.549 59.122 C 135.213 59.458,135.205 58.936,135.374 47.619 L 135.544 36.224 135.634 47.586 C 135.683 53.835,135.645 59.026,135.549 59.122 M11.565 57.778 C 11.097 57.897,10.714 58.223,10.714 58.503 C 10.714 58.835,10.310 59.052,9.559 59.124 C 8.394 59.235,7.483 59.848,7.483 60.520 C 7.483 60.720,7.111 60.884,6.656 60.884 C 6.058 60.884,5.800 61.096,5.721 61.650 C 5.651 62.139,5.377 62.415,4.960 62.416 C 4.601 62.417,4.237 62.630,4.150 62.889 C 4.046 63.203,4.139 63.270,4.430 63.090 C 4.724 62.908,4.784 62.955,4.611 63.234 C 4.471 63.461,3.984 63.789,3.530 63.961 C 3.075 64.134,2.603 64.546,2.481 64.876 C 2.358 65.206,1.971 65.731,1.619 66.043 C 1.142 66.467,1.015 66.951,1.115 67.953 C 1.232 69.120,1.168 69.274,0.625 69.132 C 0.069 68.986,0.000 69.197,0.000 71.025 C 0.000 72.888,0.072 73.096,0.765 73.229 L 1.531 73.377 0.765 73.423 L 0.000 73.469 0.000 196.574 C 0.000 313.530,0.030 319.686,0.595 319.834 C 1.162 319.982,1.162 319.991,0.595 320.029 C -0.130 320.077,-0.283 322.958,0.425 323.244 C 0.765 323.381,0.765 323.421,0.425 323.443 C 0.131 323.461,0.000 324.161,0.000 325.720 C 0.000 327.796,0.052 327.957,0.674 327.794 C 1.248 327.644,1.297 327.714,1.003 328.265 C 0.746 328.744,0.769 328.913,1.093 328.917 C 1.425 328.921,1.432 328.985,1.122 329.182 C 0.605 329.510,1.375 331.168,1.984 331.037 C 2.202 330.991,2.381 331.182,2.381 331.463 C 2.381 332.084,2.778 332.119,3.353 331.548 C 3.697 331.207,3.737 331.240,3.555 331.718 C 3.431 332.045,3.077 332.324,2.770 332.337 C 2.338 332.355,2.366 332.423,2.891 332.634 C 3.265 332.785,3.686 332.842,3.827 332.760 C 3.967 332.679,4.082 332.994,4.082 333.461 C 4.082 334.133,4.276 334.331,5.017 334.416 C 5.690 334.494,5.952 334.715,5.952 335.204 C 5.952 335.761,6.214 335.903,7.398 335.989 C 8.639 336.079,8.844 336.202,8.844 336.858 C 8.844 337.760,11.434 338.167,11.954 337.347 C 12.151 337.036,12.236 337.123,12.240 337.642 C 12.248 338.833,12.613 339.456,13.302 339.456 C 13.656 339.456,13.946 339.303,13.946 339.116 C 13.946 338.929,14.108 338.776,14.306 338.776 C 14.504 338.776,14.576 338.921,14.466 339.099 C 14.341 339.302,22.812 339.431,37.251 339.447 C 59.760 339.471,60.229 339.458,59.889 338.822 C 59.608 338.298,59.654 338.183,60.128 338.220 C 60.682 338.263,60.720 330.586,60.812 199.320 C 60.900 75.636,60.826 55.610,60.292 57.908 C 60.216 58.236,59.898 58.501,59.584 58.498 C 59.091 58.494,59.083 58.448,59.524 58.163 C 59.857 57.948,53.366 57.816,40.816 57.783 C 30.247 57.755,20.833 57.715,19.898 57.693 C 18.963 57.671,18.085 57.806,17.947 57.993 C 17.793 58.204,17.696 58.171,17.692 57.908 C 17.689 57.635,17.171 57.485,16.241 57.488 C 15.446 57.491,14.962 57.606,15.166 57.743 C 15.369 57.881,15.626 58.350,15.736 58.785 L 15.937 59.577 15.173 58.785 C 14.754 58.350,14.468 57.878,14.538 57.738 C 14.687 57.441,12.800 57.466,11.565 57.778 M339.197 57.966 C 339.091 58.138,339.259 58.181,339.570 58.062 C 339.881 57.942,340.136 57.976,340.136 58.138 C 340.136 58.299,339.906 58.519,339.626 58.626 C 339.173 58.800,339.116 74.653,339.116 198.479 C 339.116 291.497,339.229 338.065,339.456 337.925 C 339.643 337.810,339.796 337.886,339.796 338.095 C 339.796 338.304,339.973 338.366,340.189 338.233 C 340.434 338.081,340.489 338.140,340.335 338.388 C 340.200 338.607,339.947 338.699,339.772 338.591 C 339.598 338.483,339.456 338.634,339.456 338.926 C 339.456 339.400,341.702 339.456,360.874 339.456 C 379.084 339.456,382.264 339.385,382.109 338.980 C 382.009 338.718,382.073 338.414,382.251 338.303 C 382.430 338.193,382.555 338.369,382.530 338.694 C 382.429 339.970,389.266 339.503,389.514 338.216 C 389.600 337.769,389.970 337.614,390.988 337.602 C 392.215 337.587,392.346 337.501,392.339 336.720 C 392.332 335.966,392.453 335.873,393.274 335.993 C 394.100 336.114,394.218 336.021,394.218 335.243 C 394.218 334.510,394.375 334.354,395.110 334.354 C 395.905 334.354,395.951 334.291,395.535 333.778 C 395.218 333.387,395.204 333.285,395.493 333.458 C 395.752 333.614,395.918 333.529,395.918 333.241 C 395.918 332.970,396.245 332.781,396.684 332.796 C 397.270 332.817,397.474 332.609,397.555 331.906 C 397.624 331.306,397.818 331.050,398.116 331.164 C 398.717 331.395,398.933 330.991,399.037 329.439 C 399.085 328.733,399.321 328.079,399.562 327.986 C 400.199 327.742,400.212 75.652,399.575 75.395 C 399.235 75.258,399.235 75.218,399.575 75.197 C 400.114 75.163,400.176 70.523,399.640 70.345 C 399.441 70.279,399.270 69.563,399.259 68.754 C 399.240 67.392,399.179 67.295,398.429 67.438 C 397.561 67.604,397.497 67.442,397.614 65.353 C 397.656 64.604,397.550 64.288,397.308 64.438 C 397.105 64.563,396.939 64.504,396.939 64.306 C 396.939 64.108,396.720 63.946,396.452 63.946 C 396.185 63.946,395.917 63.601,395.857 63.180 C 395.797 62.759,395.557 62.396,395.323 62.372 C 395.089 62.349,394.745 62.311,394.558 62.287 C 394.371 62.264,394.218 61.939,394.218 61.565 C 394.218 60.985,393.991 60.884,392.687 60.884 C 391.269 60.884,391.156 60.820,391.156 60.009 C 391.156 59.167,391.087 59.137,389.371 59.227 C 387.612 59.319,387.587 59.306,387.694 58.403 C 387.789 57.609,387.690 57.496,386.953 57.557 C 386.485 57.596,386.130 57.767,386.164 57.938 C 386.197 58.109,386.009 58.327,385.745 58.422 C 385.413 58.543,385.331 58.425,385.479 58.040 C 385.633 57.639,385.503 57.483,385.013 57.483 C 384.639 57.483,384.245 57.712,384.137 57.991 C 384.030 58.271,383.789 58.405,383.602 58.289 C 383.388 58.157,383.422 57.979,383.690 57.813 C 383.941 57.658,383.611 57.562,382.897 57.582 C 382.212 57.601,381.764 57.760,381.876 57.942 C 381.987 58.122,381.907 58.163,381.698 58.033 C 381.109 57.669,339.422 57.603,339.197 57.966 M17.258 58.904 C 17.299 59.449,17.242 59.467,16.816 59.041 C 16.211 58.437,16.202 58.277,16.769 58.277 C 17.012 58.277,17.232 58.559,17.258 58.904 " stroke="none" fill="#a4a4a4" fill-rule="evenodd"></path><path id="path1" d="M157.362 0.678 C 156.747 1.299,156.749 1.311,157.447 1.128 C 157.841 1.025,158.163 0.729,158.163 0.471 C 158.163 -0.113,158.138 -0.106,157.362 0.678 M169.388 0.510 C 169.388 0.828,169.709 1.020,170.238 1.020 C 170.767 1.020,171.088 0.828,171.088 0.510 C 171.088 0.193,170.767 0.000,170.238 0.000 C 169.709 0.000,169.388 0.193,169.388 0.510 M243.728 1.180 C 244.091 1.454,244.617 1.678,244.898 1.678 C 245.194 1.677,245.051 1.472,244.558 1.190 C 243.440 0.551,242.887 0.544,243.728 1.180 M250.680 6.122 C 250.400 6.304,250.323 6.457,250.510 6.463 C 250.697 6.468,250.676 6.585,250.463 6.723 C 250.187 6.901,250.230 7.117,250.613 7.472 C 251.088 7.914,251.125 7.905,250.930 7.397 C 250.804 7.070,250.934 6.598,251.229 6.302 C 251.808 5.723,251.470 5.612,250.680 6.122 M140.031 15.114 C 139.692 15.371,139.539 15.644,139.691 15.721 C 140.138 15.948,141.149 15.838,141.153 15.561 C 141.165 14.744,141.133 14.627,140.901 14.637 C 140.761 14.643,140.369 14.858,140.031 15.114 M259.656 15.500 C 259.770 15.798,259.864 16.183,259.864 16.354 C 259.864 16.526,260.208 16.662,260.629 16.656 C 261.335 16.646,261.348 16.610,260.805 16.197 C 260.480 15.951,260.295 15.668,260.394 15.570 C 260.493 15.471,260.320 15.293,260.011 15.174 C 259.595 15.014,259.502 15.099,259.656 15.500 M136.885 19.080 C 136.780 19.249,137.086 19.388,137.565 19.388 C 138.607 19.388,138.691 19.194,137.755 18.949 C 137.381 18.851,136.990 18.910,136.885 19.080 M136.735 20.284 C 136.735 20.538,136.952 20.643,137.245 20.531 C 137.526 20.423,137.755 20.224,137.755 20.088 C 137.755 19.952,137.526 19.841,137.245 19.841 C 136.964 19.841,136.735 20.041,136.735 20.284 M262.692 23.384 C 262.575 23.712,262.404 24.118,262.310 24.287 C 262.216 24.456,262.317 24.486,262.532 24.352 C 262.748 24.219,262.925 23.880,262.925 23.599 C 262.925 23.319,263.089 23.190,263.288 23.314 C 263.488 23.437,263.567 23.760,263.462 24.032 C 263.358 24.303,263.415 24.438,263.588 24.331 C 264.059 24.039,263.868 22.789,263.352 22.789 C 263.106 22.789,262.808 23.057,262.692 23.384 M135.522 25.886 C 135.369 26.134,135.413 26.207,135.633 26.071 C 135.833 25.947,136.067 26.038,136.153 26.273 C 136.278 26.614,136.388 26.615,136.695 26.278 C 136.907 26.046,136.979 25.930,136.854 26.020 C 136.729 26.111,136.435 26.025,136.201 25.831 C 135.902 25.583,135.699 25.599,135.522 25.886 M232.313 32.642 C 232.313 32.824,232.568 32.874,232.879 32.755 C 233.290 32.597,233.369 32.661,233.167 32.988 C 232.989 33.275,233.020 33.357,233.252 33.214 C 233.452 33.090,233.693 33.181,233.788 33.416 C 233.897 33.689,233.970 33.641,233.987 33.285 C 234.002 32.977,233.771 32.633,233.476 32.519 C 232.703 32.223,232.313 32.264,232.313 32.642 M232.466 45.748 C 232.466 52.296,232.512 54.926,232.568 51.594 C 232.623 48.261,232.623 42.904,232.567 39.689 C 232.512 36.474,232.466 39.201,232.466 45.748 M165.673 34.743 C 165.643 35.379,166.542 35.852,166.846 35.359 C 166.956 35.180,166.821 35.034,166.545 35.034 C 166.269 35.034,165.966 34.843,165.872 34.609 C 165.763 34.340,165.690 34.390,165.673 34.743 M135.374 47.619 C 135.281 53.886,135.242 59.077,135.289 59.155 C 135.647 59.751,135.712 57.538,135.634 47.586 L 135.544 36.224 135.374 47.619 M14.529 57.753 C 14.464 57.885,14.744 58.339,15.152 58.761 L 15.893 59.530 15.734 58.699 C 15.581 57.897,14.772 57.262,14.529 57.753 M18.793 57.717 C 19.120 57.803,19.656 57.803,19.983 57.717 C 20.310 57.632,20.043 57.562,19.388 57.562 C 18.733 57.562,18.465 57.632,18.793 57.717 M40.816 57.819 C 51.386 57.915,59.804 58.096,59.524 58.221 C 59.107 58.408,59.122 58.455,59.609 58.477 C 59.936 58.491,60.204 58.274,60.204 57.993 C 60.204 57.545,57.868 57.493,40.901 57.564 L 21.599 57.645 40.816 57.819 M350.620 57.738 C 356.105 57.790,364.982 57.790,370.347 57.738 C 375.712 57.685,371.224 57.642,360.374 57.642 C 349.524 57.642,345.134 57.685,350.620 57.738 M385.495 57.902 C 385.143 58.472,385.727 58.637,386.249 58.115 C 386.713 57.650,386.711 57.596,386.226 57.596 C 385.928 57.596,385.599 57.734,385.495 57.902 M339.487 58.144 C 338.973 58.461,339.274 59.198,339.901 59.157 C 340.157 59.140,340.135 59.062,339.842 58.946 C 339.458 58.793,339.456 58.713,339.833 58.481 C 340.082 58.326,340.210 58.124,340.116 58.030 C 340.023 57.937,339.740 57.988,339.487 58.144 M16.327 58.414 C 16.327 58.490,16.547 58.772,16.816 59.041 C 17.242 59.467,17.299 59.449,17.258 58.904 C 17.220 58.398,16.327 57.929,16.327 58.414 M80.692 198.810 C 80.644 274.762,80.549 337.440,80.481 338.095 C 80.413 338.750,80.426 339.016,80.509 338.685 C 80.593 338.355,80.765 338.149,80.892 338.228 C 81.101 338.357,81.090 241.474,80.866 110.884 C 80.819 83.291,80.741 122.857,80.692 198.810 M319.556 199.320 C 319.556 275.553,319.595 306.739,319.643 268.622 C 319.691 230.506,319.691 168.134,319.643 130.017 C 319.595 91.901,319.556 123.087,319.556 199.320 M0.765 68.189 C 0.765 68.668,0.878 69.130,1.015 69.214 C 1.153 69.299,1.222 68.977,1.169 68.498 C 1.040 67.319,0.765 67.110,0.765 68.189 M339.364 337.961 C 339.227 338.097,339.116 338.323,339.116 338.462 C 339.116 338.790,340.037 338.655,340.381 338.277 C 340.527 338.117,340.468 338.088,340.250 338.213 C 340.032 338.338,339.799 338.276,339.733 338.076 C 339.666 337.876,339.500 337.824,339.364 337.961 M59.908 338.858 C 60.254 339.504,60.884 339.375,60.884 338.658 C 60.884 338.429,60.590 338.241,60.231 338.241 C 59.706 338.241,59.642 338.362,59.908 338.858 " stroke="none" fill="#a8a4a4" fill-rule="evenodd"></path><path id="path2" d="M157.362 0.678 C 156.747 1.299,156.749 1.311,157.447 1.128 C 157.841 1.025,158.163 0.729,158.163 0.471 C 158.163 -0.113,158.138 -0.106,157.362 0.678 M169.388 0.510 C 169.388 0.828,169.709 1.020,170.238 1.020 C 170.767 1.020,171.088 0.828,171.088 0.510 C 171.088 0.193,170.767 0.000,170.238 0.000 C 169.709 0.000,169.388 0.193,169.388 0.510 M243.728 1.180 C 244.091 1.454,244.617 1.678,244.898 1.678 C 245.194 1.677,245.051 1.472,244.558 1.190 C 243.440 0.551,242.887 0.544,243.728 1.180 M250.680 6.122 C 250.400 6.304,250.323 6.457,250.510 6.463 C 250.697 6.468,250.676 6.585,250.463 6.723 C 250.187 6.901,250.230 7.117,250.613 7.472 C 251.088 7.914,251.125 7.905,250.930 7.397 C 250.804 7.070,250.934 6.598,251.229 6.302 C 251.808 5.723,251.470 5.612,250.680 6.122 M140.031 15.114 C 139.692 15.371,139.539 15.644,139.691 15.721 C 140.138 15.948,141.149 15.838,141.153 15.561 C 141.165 14.744,141.133 14.627,140.901 14.637 C 140.761 14.643,140.369 14.858,140.031 15.114 M259.656 15.500 C 259.770 15.798,259.864 16.183,259.864 16.354 C 259.864 16.526,260.208 16.662,260.629 16.656 C 261.335 16.646,261.348 16.610,260.805 16.197 C 260.480 15.951,260.295 15.668,260.394 15.570 C 260.493 15.471,260.320 15.293,260.011 15.174 C 259.595 15.014,259.502 15.099,259.656 15.500 M136.885 19.080 C 136.780 19.249,137.086 19.388,137.565 19.388 C 138.607 19.388,138.691 19.194,137.755 18.949 C 137.381 18.851,136.990 18.910,136.885 19.080 M136.735 20.284 C 136.735 20.538,136.952 20.643,137.245 20.531 C 137.526 20.423,137.755 20.224,137.755 20.088 C 137.755 19.952,137.526 19.841,137.245 19.841 C 136.964 19.841,136.735 20.041,136.735 20.284 M262.692 23.384 C 262.575 23.712,262.404 24.118,262.310 24.287 C 262.216 24.456,262.317 24.486,262.532 24.352 C 262.748 24.219,262.925 23.880,262.925 23.599 C 262.925 23.319,263.089 23.190,263.288 23.314 C 263.488 23.437,263.567 23.760,263.462 24.032 C 263.358 24.303,263.415 24.438,263.588 24.331 C 264.059 24.039,263.868 22.789,263.352 22.789 C 263.106 22.789,262.808 23.057,262.692 23.384 M135.522 25.886 C 135.369 26.134,135.413 26.207,135.633 26.071 C 135.833 25.947,136.067 26.038,136.153 26.273 C 136.278 26.614,136.388 26.615,136.695 26.278 C 136.907 26.046,136.979 25.930,136.854 26.020 C 136.729 26.111,136.435 26.025,136.201 25.831 C 135.902 25.583,135.699 25.599,135.522 25.886 M232.313 32.642 C 232.313 32.824,232.568 32.874,232.879 32.755 C 233.290 32.597,233.369 32.661,233.167 32.988 C 232.989 33.275,233.020 33.357,233.252 33.214 C 233.452 33.090,233.693 33.181,233.788 33.416 C 233.897 33.689,233.970 33.641,233.987 33.285 C 234.002 32.977,233.771 32.633,233.476 32.519 C 232.703 32.223,232.313 32.264,232.313 32.642 M232.466 45.748 C 232.466 52.296,232.512 54.926,232.568 51.594 C 232.623 48.261,232.623 42.904,232.567 39.689 C 232.512 36.474,232.466 39.201,232.466 45.748 M165.673 34.743 C 165.643 35.379,166.542 35.852,166.846 35.359 C 166.956 35.180,166.821 35.034,166.545 35.034 C 166.269 35.034,165.966 34.843,165.872 34.609 C 165.763 34.340,165.690 34.390,165.673 34.743 M135.374 47.619 C 135.281 53.886,135.242 59.077,135.289 59.155 C 135.647 59.751,135.712 57.538,135.634 47.586 L 135.544 36.224 135.374 47.619 M14.529 57.753 C 14.464 57.885,14.744 58.339,15.152 58.761 L 15.893 59.530 15.734 58.699 C 15.581 57.897,14.772 57.262,14.529 57.753 M18.793 57.717 C 19.120 57.803,19.656 57.803,19.983 57.717 C 20.310 57.632,20.043 57.562,19.388 57.562 C 18.733 57.562,18.465 57.632,18.793 57.717 M40.816 57.819 C 51.386 57.915,59.804 58.096,59.524 58.221 C 59.107 58.408,59.122 58.455,59.609 58.477 C 59.936 58.491,60.204 58.274,60.204 57.993 C 60.204 57.545,57.868 57.493,40.901 57.564 L 21.599 57.645 40.816 57.819 M350.620 57.738 C 356.105 57.790,364.982 57.790,370.347 57.738 C 375.712 57.685,371.224 57.642,360.374 57.642 C 349.524 57.642,345.134 57.685,350.620 57.738 M385.495 57.902 C 385.143 58.472,385.727 58.637,386.249 58.115 C 386.713 57.650,386.711 57.596,386.226 57.596 C 385.928 57.596,385.599 57.734,385.495 57.902 M339.487 58.144 C 338.973 58.461,339.274 59.198,339.901 59.157 C 340.157 59.140,340.135 59.062,339.842 58.946 C 339.458 58.793,339.456 58.713,339.833 58.481 C 340.082 58.326,340.210 58.124,340.116 58.030 C 340.023 57.937,339.740 57.988,339.487 58.144 M16.327 58.414 C 16.327 58.490,16.547 58.772,16.816 59.041 C 17.242 59.467,17.299 59.449,17.258 58.904 C 17.220 58.398,16.327 57.929,16.327 58.414 M80.692 198.810 C 80.644 274.762,80.549 337.440,80.481 338.095 C 80.413 338.750,80.426 339.016,80.509 338.685 C 80.593 338.355,80.765 338.149,80.892 338.228 C 81.101 338.357,81.090 241.474,80.866 110.884 C 80.819 83.291,80.741 122.857,80.692 198.810 M319.556 199.320 C 319.556 275.553,319.595 306.739,319.643 268.622 C 319.691 230.506,319.691 168.134,319.643 130.017 C 319.595 91.901,319.556 123.087,319.556 199.320 M0.765 68.189 C 0.765 68.668,0.878 69.130,1.015 69.214 C 1.153 69.299,1.222 68.977,1.169 68.498 C 1.040 67.319,0.765 67.110,0.765 68.189 M339.364 337.961 C 339.227 338.097,339.116 338.323,339.116 338.462 C 339.116 338.790,340.037 338.655,340.381 338.277 C 340.527 338.117,340.468 338.088,340.250 338.213 C 340.032 338.338,339.799 338.276,339.733 338.076 C 339.666 337.876,339.500 337.824,339.364 337.961 M59.908 338.858 C 60.254 339.504,60.884 339.375,60.884 338.658 C 60.884 338.429,60.590 338.241,60.231 338.241 C 59.706 338.241,59.642 338.362,59.908 338.858 " stroke="none" fill="#a8a4a4" fill-rule="evenodd"></path><path id="path3" d="M157.362 0.678 C 156.747 1.299,156.749 1.311,157.447 1.128 C 157.841 1.025,158.163 0.729,158.163 0.471 C 158.163 -0.113,158.138 -0.106,157.362 0.678 M169.388 0.510 C 169.388 0.828,169.709 1.020,170.238 1.020 C 170.767 1.020,171.088 0.828,171.088 0.510 C 171.088 0.193,170.767 0.000,170.238 0.000 C 169.709 0.000,169.388 0.193,169.388 0.510 M243.728 1.180 C 244.091 1.454,244.617 1.678,244.898 1.678 C 245.194 1.677,245.051 1.472,244.558 1.190 C 243.440 0.551,242.887 0.544,243.728 1.180 M250.680 6.122 C 250.400 6.304,250.323 6.457,250.510 6.463 C 250.697 6.468,250.676 6.585,250.463 6.723 C 250.187 6.901,250.230 7.117,250.613 7.472 C 251.088 7.914,251.125 7.905,250.930 7.397 C 250.804 7.070,250.934 6.598,251.229 6.302 C 251.808 5.723,251.470 5.612,250.680 6.122 M140.031 15.114 C 139.692 15.371,139.539 15.644,139.691 15.721 C 140.138 15.948,141.149 15.838,141.153 15.561 C 141.165 14.744,141.133 14.627,140.901 14.637 C 140.761 14.643,140.369 14.858,140.031 15.114 M259.656 15.500 C 259.770 15.798,259.864 16.183,259.864 16.354 C 259.864 16.526,260.208 16.662,260.629 16.656 C 261.335 16.646,261.348 16.610,260.805 16.197 C 260.480 15.951,260.295 15.668,260.394 15.570 C 260.493 15.471,260.320 15.293,260.011 15.174 C 259.595 15.014,259.502 15.099,259.656 15.500 M136.885 19.080 C 136.780 19.249,137.086 19.388,137.565 19.388 C 138.607 19.388,138.691 19.194,137.755 18.949 C 137.381 18.851,136.990 18.910,136.885 19.080 M136.735 20.284 C 136.735 20.538,136.952 20.643,137.245 20.531 C 137.526 20.423,137.755 20.224,137.755 20.088 C 137.755 19.952,137.526 19.841,137.245 19.841 C 136.964 19.841,136.735 20.041,136.735 20.284 M262.692 23.384 C 262.575 23.712,262.404 24.118,262.310 24.287 C 262.216 24.456,262.317 24.486,262.532 24.352 C 262.748 24.219,262.925 23.880,262.925 23.599 C 262.925 23.319,263.089 23.190,263.288 23.314 C 263.488 23.437,263.567 23.760,263.462 24.032 C 263.358 24.303,263.415 24.438,263.588 24.331 C 264.059 24.039,263.868 22.789,263.352 22.789 C 263.106 22.789,262.808 23.057,262.692 23.384 M135.522 25.886 C 135.369 26.134,135.413 26.207,135.633 26.071 C 135.833 25.947,136.067 26.038,136.153 26.273 C 136.278 26.614,136.388 26.615,136.695 26.278 C 136.907 26.046,136.979 25.930,136.854 26.020 C 136.729 26.111,136.435 26.025,136.201 25.831 C 135.902 25.583,135.699 25.599,135.522 25.886 M232.313 32.642 C 232.313 32.824,232.568 32.874,232.879 32.755 C 233.290 32.597,233.369 32.661,233.167 32.988 C 232.989 33.275,233.020 33.357,233.252 33.214 C 233.452 33.090,233.693 33.181,233.788 33.416 C 233.897 33.689,233.970 33.641,233.987 33.285 C 234.002 32.977,233.771 32.633,233.476 32.519 C 232.703 32.223,232.313 32.264,232.313 32.642 M232.466 45.748 C 232.466 52.296,232.512 54.926,232.568 51.594 C 232.623 48.261,232.623 42.904,232.567 39.689 C 232.512 36.474,232.466 39.201,232.466 45.748 M165.673 34.743 C 165.643 35.379,166.542 35.852,166.846 35.359 C 166.956 35.180,166.821 35.034,166.545 35.034 C 166.269 35.034,165.966 34.843,165.872 34.609 C 165.763 34.340,165.690 34.390,165.673 34.743 M135.374 47.619 C 135.281 53.886,135.242 59.077,135.289 59.155 C 135.647 59.751,135.712 57.538,135.634 47.586 L 135.544 36.224 135.374 47.619 M14.529 57.753 C 14.464 57.885,14.744 58.339,15.152 58.761 L 15.893 59.530 15.734 58.699 C 15.581 57.897,14.772 57.262,14.529 57.753 M18.793 57.717 C 19.120 57.803,19.656 57.803,19.983 57.717 C 20.310 57.632,20.043 57.562,19.388 57.562 C 18.733 57.562,18.465 57.632,18.793 57.717 M40.816 57.819 C 51.386 57.915,59.804 58.096,59.524 58.221 C 59.107 58.408,59.122 58.455,59.609 58.477 C 59.936 58.491,60.204 58.274,60.204 57.993 C 60.204 57.545,57.868 57.493,40.901 57.564 L 21.599 57.645 40.816 57.819 M350.620 57.738 C 356.105 57.790,364.982 57.790,370.347 57.738 C 375.712 57.685,371.224 57.642,360.374 57.642 C 349.524 57.642,345.134 57.685,350.620 57.738 M385.495 57.902 C 385.143 58.472,385.727 58.637,386.249 58.115 C 386.713 57.650,386.711 57.596,386.226 57.596 C 385.928 57.596,385.599 57.734,385.495 57.902 M339.487 58.144 C 338.973 58.461,339.274 59.198,339.901 59.157 C 340.157 59.140,340.135 59.062,339.842 58.946 C 339.458 58.793,339.456 58.713,339.833 58.481 C 340.082 58.326,340.210 58.124,340.116 58.030 C 340.023 57.937,339.740 57.988,339.487 58.144 M16.327 58.414 C 16.327 58.490,16.547 58.772,16.816 59.041 C 17.242 59.467,17.299 59.449,17.258 58.904 C 17.220 58.398,16.327 57.929,16.327 58.414 M80.692 198.810 C 80.644 274.762,80.549 337.440,80.481 338.095 C 80.413 338.750,80.426 339.016,80.509 338.685 C 80.593 338.355,80.765 338.149,80.892 338.228 C 81.101 338.357,81.090 241.474,80.866 110.884 C 80.819 83.291,80.741 122.857,80.692 198.810 M319.556 199.320 C 319.556 275.553,319.595 306.739,319.643 268.622 C 319.691 230.506,319.691 168.134,319.643 130.017 C 319.595 91.901,319.556 123.087,319.556 199.320 M0.765 68.189 C 0.765 68.668,0.878 69.130,1.015 69.214 C 1.153 69.299,1.222 68.977,1.169 68.498 C 1.040 67.319,0.765 67.110,0.765 68.189 M339.364 337.961 C 339.227 338.097,339.116 338.323,339.116 338.462 C 339.116 338.790,340.037 338.655,340.381 338.277 C 340.527 338.117,340.468 338.088,340.250 338.213 C 340.032 338.338,339.799 338.276,339.733 338.076 C 339.666 337.876,339.500 337.824,339.364 337.961 M59.908 338.858 C 60.254 339.504,60.884 339.375,60.884 338.658 C 60.884 338.429,60.590 338.241,60.231 338.241 C 59.706 338.241,59.642 338.362,59.908 338.858 " stroke="none" fill="#a8a4a4" fill-rule="evenodd"></path><path id="path4" d="M157.362 0.678 C 156.747 1.299,156.749 1.311,157.447 1.128 C 157.841 1.025,158.163 0.729,158.163 0.471 C 158.163 -0.113,158.138 -0.106,157.362 0.678 M169.388 0.510 C 169.388 0.828,169.709 1.020,170.238 1.020 C 170.767 1.020,171.088 0.828,171.088 0.510 C 171.088 0.193,170.767 0.000,170.238 0.000 C 169.709 0.000,169.388 0.193,169.388 0.510 M243.728 1.180 C 244.091 1.454,244.617 1.678,244.898 1.678 C 245.194 1.677,245.051 1.472,244.558 1.190 C 243.440 0.551,242.887 0.544,243.728 1.180 M250.680 6.122 C 250.400 6.304,250.323 6.457,250.510 6.463 C 250.697 6.468,250.676 6.585,250.463 6.723 C 250.187 6.901,250.230 7.117,250.613 7.472 C 251.088 7.914,251.125 7.905,250.930 7.397 C 250.804 7.070,250.934 6.598,251.229 6.302 C 251.808 5.723,251.470 5.612,250.680 6.122 M140.031 15.114 C 139.692 15.371,139.539 15.644,139.691 15.721 C 140.138 15.948,141.149 15.838,141.153 15.561 C 141.165 14.744,141.133 14.627,140.901 14.637 C 140.761 14.643,140.369 14.858,140.031 15.114 M259.656 15.500 C 259.770 15.798,259.864 16.183,259.864 16.354 C 259.864 16.526,260.208 16.662,260.629 16.656 C 261.335 16.646,261.348 16.610,260.805 16.197 C 260.480 15.951,260.295 15.668,260.394 15.570 C 260.493 15.471,260.320 15.293,260.011 15.174 C 259.595 15.014,259.502 15.099,259.656 15.500 M136.885 19.080 C 136.780 19.249,137.086 19.388,137.565 19.388 C 138.607 19.388,138.691 19.194,137.755 18.949 C 137.381 18.851,136.990 18.910,136.885 19.080 M136.735 20.284 C 136.735 20.538,136.952 20.643,137.245 20.531 C 137.526 20.423,137.755 20.224,137.755 20.088 C 137.755 19.952,137.526 19.841,137.245 19.841 C 136.964 19.841,136.735 20.041,136.735 20.284 M262.692 23.384 C 262.575 23.712,262.404 24.118,262.310 24.287 C 262.216 24.456,262.317 24.486,262.532 24.352 C 262.748 24.219,262.925 23.880,262.925 23.599 C 262.925 23.319,263.089 23.190,263.288 23.314 C 263.488 23.437,263.567 23.760,263.462 24.032 C 263.358 24.303,263.415 24.438,263.588 24.331 C 264.059 24.039,263.868 22.789,263.352 22.789 C 263.106 22.789,262.808 23.057,262.692 23.384 M135.522 25.886 C 135.369 26.134,135.413 26.207,135.633 26.071 C 135.833 25.947,136.067 26.038,136.153 26.273 C 136.278 26.614,136.388 26.615,136.695 26.278 C 136.907 26.046,136.979 25.930,136.854 26.020 C 136.729 26.111,136.435 26.025,136.201 25.831 C 135.902 25.583,135.699 25.599,135.522 25.886 M232.313 32.642 C 232.313 32.824,232.568 32.874,232.879 32.755 C 233.290 32.597,233.369 32.661,233.167 32.988 C 232.989 33.275,233.020 33.357,233.252 33.214 C 233.452 33.090,233.693 33.181,233.788 33.416 C 233.897 33.689,233.970 33.641,233.987 33.285 C 234.002 32.977,233.771 32.633,233.476 32.519 C 232.703 32.223,232.313 32.264,232.313 32.642 M232.466 45.748 C 232.466 52.296,232.512 54.926,232.568 51.594 C 232.623 48.261,232.623 42.904,232.567 39.689 C 232.512 36.474,232.466 39.201,232.466 45.748 M165.673 34.743 C 165.643 35.379,166.542 35.852,166.846 35.359 C 166.956 35.180,166.821 35.034,166.545 35.034 C 166.269 35.034,165.966 34.843,165.872 34.609 C 165.763 34.340,165.690 34.390,165.673 34.743 M135.374 47.619 C 135.281 53.886,135.242 59.077,135.289 59.155 C 135.647 59.751,135.712 57.538,135.634 47.586 L 135.544 36.224 135.374 47.619 M14.529 57.753 C 14.464 57.885,14.744 58.339,15.152 58.761 L 15.893 59.530 15.734 58.699 C 15.581 57.897,14.772 57.262,14.529 57.753 M18.793 57.717 C 19.120 57.803,19.656 57.803,19.983 57.717 C 20.310 57.632,20.043 57.562,19.388 57.562 C 18.733 57.562,18.465 57.632,18.793 57.717 M40.816 57.819 C 51.386 57.915,59.804 58.096,59.524 58.221 C 59.107 58.408,59.122 58.455,59.609 58.477 C 59.936 58.491,60.204 58.274,60.204 57.993 C 60.204 57.545,57.868 57.493,40.901 57.564 L 21.599 57.645 40.816 57.819 M350.620 57.738 C 356.105 57.790,364.982 57.790,370.347 57.738 C 375.712 57.685,371.224 57.642,360.374 57.642 C 349.524 57.642,345.134 57.685,350.620 57.738 M385.495 57.902 C 385.143 58.472,385.727 58.637,386.249 58.115 C 386.713 57.650,386.711 57.596,386.226 57.596 C 385.928 57.596,385.599 57.734,385.495 57.902 M339.487 58.144 C 338.973 58.461,339.274 59.198,339.901 59.157 C 340.157 59.140,340.135 59.062,339.842 58.946 C 339.458 58.793,339.456 58.713,339.833 58.481 C 340.082 58.326,340.210 58.124,340.116 58.030 C 340.023 57.937,339.740 57.988,339.487 58.144 M16.327 58.414 C 16.327 58.490,16.547 58.772,16.816 59.041 C 17.242 59.467,17.299 59.449,17.258 58.904 C 17.220 58.398,16.327 57.929,16.327 58.414 M80.692 198.810 C 80.644 274.762,80.549 337.440,80.481 338.095 C 80.413 338.750,80.426 339.016,80.509 338.685 C 80.593 338.355,80.765 338.149,80.892 338.228 C 81.101 338.357,81.090 241.474,80.866 110.884 C 80.819 83.291,80.741 122.857,80.692 198.810 M319.556 199.320 C 319.556 275.553,319.595 306.739,319.643 268.622 C 319.691 230.506,319.691 168.134,319.643 130.017 C 319.595 91.901,319.556 123.087,319.556 199.320 M0.765 68.189 C 0.765 68.668,0.878 69.130,1.015 69.214 C 1.153 69.299,1.222 68.977,1.169 68.498 C 1.040 67.319,0.765 67.110,0.765 68.189 M339.364 337.961 C 339.227 338.097,339.116 338.323,339.116 338.462 C 339.116 338.790,340.037 338.655,340.381 338.277 C 340.527 338.117,340.468 338.088,340.250 338.213 C 340.032 338.338,339.799 338.276,339.733 338.076 C 339.666 337.876,339.500 337.824,339.364 337.961 M59.908 338.858 C 60.254 339.504,60.884 339.375,60.884 338.658 C 60.884 338.429,60.590 338.241,60.231 338.241 C 59.706 338.241,59.642 338.362,59.908 338.858 " stroke="none" fill="#a8a4a4" fill-rule="evenodd"></path></g></svg>