<svg xmlns="http://www.w3.org/2000/svg" viewBox="0 0 435.75 374.37"><defs><style>.cls-1{fill:#666;}</style></defs><g id="Layer_2" data-name="Layer 2"><g id="Layer_1-2" data-name="Layer 1"><path class="cls-1" d="M435.75,201.16V340.52a33.87,33.87,0,0,1-33.85,33.85h-368A34,34,0,0,1,0,340.52V201.16H23.84V340.52a10,10,0,0,0,2.95,7.07,9.88,9.88,0,0,0,7.06,2.94h368a10,10,0,0,0,7.09-2.92,10.18,10.18,0,0,0,2.92-7.09V201.16Z"/><path class="cls-1" d="M33.85,75.68h368a34,34,0,0,1,33.85,33.85V245.85H411.91V109.53a10,10,0,0,0-2.94-7.07,9.88,9.88,0,0,0-7.07-2.94h-368a10.07,10.07,0,0,0-7.09,2.92,10.18,10.18,0,0,0-2.92,7.09V245.85H0V109.53A33.87,33.87,0,0,1,33.85,75.68Z"/><path class="cls-1" d="M179.87,0h76a69.5,69.5,0,0,1,69.28,69.27v0H301.3a45.49,45.49,0,0,0-45.44-45.45h-76a45.58,45.58,0,0,0-45.43,45.43v0H110.6A69.5,69.5,0,0,1,179.87,0Z"/><path class="cls-1" d="M435.75,142.21v54.06a33.87,33.87,0,0,1-33.85,33.85H290V206.28H401.9a10,10,0,0,0,7.09-2.92,10.18,10.18,0,0,0,2.92-7.09V142.21ZM145.14,230.12H33.85A34,34,0,0,1,0,196.27V142.21H23.84v54.06a10,10,0,0,0,2.95,7.07,9.88,9.88,0,0,0,7.06,2.94H145.14v23.84Z"/><path class="cls-1" d="M130.71,218.21a41.86,41.86,0,0,1,41.7-41.73h90.91a41.72,41.72,0,0,1,0,83.44H172.41a41.76,41.76,0,0,1-41.7-41.71Zm23.84,0a18,18,0,0,0,17.86,17.89h90.91a17.88,17.88,0,1,0,0-35.76H172.41a18,18,0,0,0-17.86,17.87Z"/></g></g></svg>