<svg id="svg" version="1.1" xmlns="http://www.w3.org/2000/svg" xmlns:xlink="http://www.w3.org/1999/xlink" width="400" height="397.88359788359793" viewBox="0, 0, 400,397.88359788359793"><g id="svgg"><path id="path0" d="M69.652 31.078 C 69.652 31.304,69.474 31.380,69.257 31.246 C 68.997 31.085,68.861 88.148,68.858 199.008 C 68.854 311.421,68.984 366.933,69.252 366.767 C 69.472 366.631,69.652 366.709,69.652 366.939 C 69.652 367.232,109.104 367.360,200.398 367.362 L 331.144 367.365 331.144 366.170 C 331.144 365.483,330.933 364.973,330.647 364.969 C 330.250 364.964,330.251 364.899,330.649 364.646 C 331.048 364.392,331.128 339.995,331.047 243.159 L 330.945 121.990 330.050 121.863 C 329.268 121.752,328.942 121.142,329.107 120.100 C 329.133 119.935,328.639 119.801,328.009 119.801 C 326.737 119.801,325.741 120.700,326.196 121.437 C 326.383 121.739,326.322 121.810,326.032 121.630 C 325.779 121.474,325.575 120.864,325.578 120.275 C 325.582 119.560,325.693 119.376,325.912 119.720 C 326.513 120.668,327.315 119.235,326.762 118.202 C 326.323 117.382,326.283 117.377,325.752 118.077 C 325.258 118.728,325.198 118.735,325.187 118.138 C 325.177 117.630,324.889 117.507,323.980 117.622 C 322.889 117.760,322.786 117.672,322.786 116.598 C 322.786 115.610,322.628 115.423,321.791 115.423 C 320.869 115.423,320.547 114.878,320.765 113.684 C 320.799 113.494,320.292 113.416,319.638 113.512 C 318.556 113.671,318.437 113.576,318.328 112.465 C 318.240 111.560,318.008 111.244,317.432 111.244 C 316.931 111.244,316.571 110.890,316.419 110.249 C 316.289 109.701,315.967 109.231,315.703 109.204 C 315.440 109.177,315.045 109.132,314.826 109.104 C 314.607 109.077,314.428 108.726,314.428 108.325 C 314.428 107.282,313.999 106.995,313.294 107.566 C 312.807 107.960,312.743 107.959,312.982 107.562 C 313.168 107.253,313.056 107.065,312.687 107.065 C 312.335 107.065,312.041 106.619,311.967 105.970 C 311.878 105.198,311.642 104.909,311.165 104.988 C 310.469 105.103,309.483 103.784,309.931 103.336 C 310.069 103.198,310.018 103.062,309.818 103.034 C 308.211 102.810,307.662 102.849,307.662 103.188 C 307.662 103.403,307.359 103.334,306.988 103.034 C 306.531 102.663,306.411 102.647,306.614 102.985 C 306.778 103.259,306.735 103.483,306.518 103.483 C 306.072 103.483,305.466 101.952,305.611 101.194 C 305.670 100.889,305.264 100.697,304.564 100.697 C 303.521 100.697,303.437 100.593,303.597 99.502 C 303.710 98.728,303.600 98.308,303.282 98.308 C 302.998 98.308,302.875 98.624,302.990 99.062 C 303.191 99.832,302.421 99.997,301.803 99.318 C 301.632 99.130,301.716 99.106,301.990 99.263 C 302.298 99.440,302.488 99.313,302.488 98.929 C 302.488 98.588,302.321 98.308,302.117 98.308 C 301.914 98.308,301.690 97.905,301.620 97.413 C 301.529 96.772,301.182 96.482,300.398 96.391 C 299.532 96.292,299.303 96.059,299.303 95.279 C 299.303 94.722,299.087 94.322,298.806 94.358 C 297.650 94.508,297.313 94.272,297.313 93.310 C 297.313 92.732,297.141 92.398,296.915 92.537 C 296.697 92.673,296.517 92.599,296.517 92.374 C 296.517 92.149,296.249 92.068,295.920 92.194 C 295.488 92.360,295.323 92.149,295.323 91.428 C 295.323 90.293,294.470 89.787,293.721 90.479 C 293.333 90.838,293.281 90.831,293.497 90.448 C 293.837 89.847,293.691 89.834,292.341 90.347 C 291.648 90.611,291.380 90.611,291.543 90.347 C 291.678 90.129,292.046 89.950,292.362 89.950 C 293.137 89.950,293.095 88.394,292.312 88.094 C 291.968 87.962,291.508 88.034,291.288 88.254 C 290.723 88.820,288.962 87.938,288.958 87.088 C 288.957 86.718,288.746 86.286,288.490 86.127 C 288.169 85.929,288.110 86.064,288.300 86.558 C 288.530 87.157,288.477 87.195,287.987 86.788 C 287.663 86.519,287.213 86.414,286.987 86.554 C 286.741 86.705,286.672 86.557,286.815 86.185 C 286.985 85.742,286.877 85.631,286.442 85.798 C 285.972 85.978,285.882 85.832,286.054 85.172 C 286.228 84.509,286.363 84.433,286.644 84.842 C 286.911 85.232,286.975 85.162,286.884 84.577 C 286.801 84.045,286.398 83.739,285.668 83.655 C 284.812 83.556,284.577 83.321,284.577 82.561 C 284.577 81.846,284.361 81.592,283.753 81.592 C 283.299 81.592,282.660 81.323,282.331 80.995 C 282.003 80.667,281.926 80.398,282.161 80.398 C 283.070 80.398,282.528 79.652,281.447 79.415 C 280.591 79.227,280.317 78.945,280.352 78.289 C 280.379 77.776,280.151 77.391,279.801 77.359 C 279.473 77.330,278.915 77.285,278.563 77.260 C 278.100 77.227,277.974 76.937,278.112 76.219 C 278.276 75.358,278.158 75.224,277.237 75.224 C 276.498 75.224,276.259 75.376,276.458 75.721 C 276.625 76.011,276.593 76.079,276.382 75.885 C 276.183 75.701,276.020 75.075,276.020 74.492 C 276.020 73.502,275.899 73.430,274.163 73.396 C 272.323 73.359,270.588 72.369,271.440 71.843 C 271.660 71.706,271.841 71.404,271.841 71.172 C 271.841 70.893,271.649 70.907,271.279 71.214 C 270.889 71.538,270.638 71.551,270.456 71.257 C 270.312 71.024,270.046 70.924,269.865 71.036 C 269.684 71.148,269.430 70.962,269.300 70.624 C 269.165 70.271,269.232 70.112,269.457 70.252 C 269.674 70.385,269.851 70.126,269.851 69.675 C 269.851 69.066,269.595 68.856,268.856 68.856 C 268.060 68.856,267.861 68.657,267.861 67.861 C 267.861 66.994,267.686 66.866,266.505 66.866 C 265.345 66.866,265.179 66.751,265.357 66.070 C 265.478 65.607,265.370 65.274,265.098 65.274 C 264.829 65.274,264.757 65.062,264.929 64.776 C 265.160 64.392,265.085 64.394,264.600 64.786 C 263.909 65.346,263.483 64.761,263.483 63.251 C 263.483 62.708,263.203 62.488,262.515 62.488 C 261.815 62.488,261.513 62.240,261.421 61.592 C 261.320 60.886,261.036 60.697,260.074 60.697 C 259.008 60.697,258.877 60.579,259.034 59.759 C 259.262 58.567,258.700 58.229,256.592 58.291 C 255.038 58.337,254.908 58.262,254.916 57.329 C 254.923 56.564,254.695 56.286,253.977 56.184 C 253.142 56.066,253.053 56.177,253.231 57.110 C 253.347 57.716,253.284 58.021,253.085 57.821 C 252.894 57.630,252.707 56.713,252.671 55.785 C 252.619 54.470,252.465 54.127,251.974 54.236 C 251.627 54.313,251.401 54.634,251.471 54.949 C 251.575 55.414,251.502 55.427,251.084 55.016 C 250.801 54.737,250.620 53.916,250.682 53.192 C 250.767 52.214,250.635 51.874,250.174 51.874 C 249.832 51.874,249.552 51.993,249.552 52.139 C 249.552 52.285,249.323 52.405,249.043 52.405 C 248.707 52.405,248.583 51.982,248.678 51.165 C 248.798 50.139,248.679 49.915,247.985 49.863 C 247.524 49.828,247.251 49.968,247.378 50.173 C 247.505 50.379,247.437 50.547,247.227 50.547 C 246.739 50.547,245.947 48.320,246.301 47.943 C 246.447 47.787,246.004 47.738,245.315 47.834 C 244.433 47.957,244.118 47.864,244.251 47.518 C 244.560 46.714,243.567 45.152,243.163 45.806 C 242.802 46.390,242.438 45.811,242.222 44.310 C 242.157 43.854,241.723 43.535,241.061 43.456 C 240.239 43.359,240.058 43.469,240.244 43.954 C 240.376 44.297,240.643 44.577,240.839 44.577 C 241.034 44.577,241.194 44.784,241.194 45.037 C 241.194 45.298,240.849 45.185,240.398 44.776 C 239.904 44.329,239.602 44.239,239.602 44.539 C 239.602 44.805,239.438 44.921,239.238 44.797 C 239.038 44.673,238.783 44.797,238.672 45.072 C 238.513 45.467,238.464 45.465,238.439 45.062 C 238.422 44.782,238.677 44.449,239.005 44.323 C 239.856 43.997,239.744 43.383,238.834 43.383 C 238.340 43.383,238.020 43.063,237.938 42.488 C 237.856 41.912,237.491 41.547,236.915 41.465 C 236.267 41.373,236.020 41.070,236.020 40.370 C 236.020 39.456,235.674 39.224,234.527 39.373 C 234.254 39.409,234.007 39.161,233.980 38.823 C 233.953 38.485,233.886 38.030,233.831 37.811 C 233.776 37.592,233.706 37.279,233.675 37.114 C 233.645 36.950,233.446 37.085,233.234 37.413 C 232.977 37.811,232.846 37.844,232.842 37.512 C 232.839 37.239,232.567 37.015,232.239 37.015 C 231.867 37.015,231.642 36.639,231.642 36.020 C 231.642 35.224,231.443 35.025,230.647 35.025 C 229.865 35.025,229.652 34.823,229.652 34.080 C 229.652 33.343,229.382 33.080,228.431 32.890 C 227.760 32.756,227.314 32.479,227.440 32.276 C 227.566 32.072,227.386 31.622,227.040 31.276 C 226.337 30.573,224.657 30.432,224.279 31.045 C 224.143 31.264,223.819 31.440,223.559 31.437 C 223.273 31.433,223.322 31.276,223.682 31.042 C 224.071 30.789,197.397 30.656,146.965 30.660 C 93.962 30.664,69.652 30.796,69.652 31.078 M226.029 32.787 C 226.386 33.216,226.321 33.378,225.730 33.533 C 225.148 33.685,225.021 33.560,225.172 32.984 C 225.405 32.093,225.445 32.084,226.029 32.787 M185.771 33.333 C 165.030 33.390,131.090 33.390,110.348 33.333 C 89.607 33.276,106.577 33.230,148.060 33.230 C 189.542 33.230,206.512 33.276,185.771 33.333 M71.144 281.095 C 71.089 326.244,71.043 289.303,71.043 199.005 C 71.043 108.706,71.089 71.766,71.144 116.915 C 71.200 162.065,71.200 235.945,71.144 281.095 M241.252 46.730 C 241.547 46.548,241.607 46.618,241.419 46.923 C 241.027 47.557,239.990 46.738,240.025 45.822 C 240.042 45.396,240.177 45.489,240.420 46.095 C 240.642 46.649,240.974 46.902,241.252 46.730 M96.000 60.179 C 95.631 60.548,95.500 92.126,95.423 199.383 L 95.325 338.109 95.224 199.444 C 95.125 63.489,95.153 59.701,96.248 59.701 C 96.374 59.701,96.263 59.916,96.000 60.179 M198.255 101.791 C 198.280 124.502,198.328 143.353,198.361 143.682 C 198.394 144.010,198.317 144.458,198.190 144.677 C 197.979 145.043,197.974 145.310,198.148 146.778 C 198.188 147.113,198.786 147.266,199.900 147.226 C 200.831 147.192,224.114 147.186,251.642 147.214 L 301.692 147.264 301.692 242.388 L 301.692 337.512 200.000 337.512 L 98.308 337.512 98.308 199.005 L 98.308 60.498 148.259 60.498 L 198.209 60.498 198.255 101.791 M258.150 62.288 C 257.735 62.603,257.199 62.739,256.960 62.591 C 256.709 62.436,256.944 62.206,257.516 62.047 C 258.952 61.647,258.982 61.659,258.150 62.288 M228.611 72.387 C 229.252 73.096,229.240 73.130,228.374 73.084 L 227.463 73.035 227.259 95.323 L 227.055 117.612 226.960 95.472 C 226.878 76.271,226.944 73.266,227.458 72.839 C 227.784 72.569,227.953 72.189,227.833 71.995 C 227.454 71.382,227.909 71.612,228.611 72.387 M229.737 76.020 C 229.579 77.092,229.670 77.214,230.625 77.214 C 231.363 77.214,231.601 77.062,231.402 76.716 C 231.236 76.427,231.268 76.358,231.478 76.550 C 231.678 76.733,231.846 77.360,231.853 77.944 C 231.863 78.799,232.076 79.029,232.947 79.131 C 233.861 79.237,234.030 79.446,234.030 80.470 C 234.030 81.571,234.132 81.667,235.143 81.519 C 236.165 81.369,236.243 81.447,236.093 82.469 C 235.949 83.451,236.055 83.582,236.993 83.582 C 237.696 83.582,237.961 83.426,237.773 83.123 C 237.591 82.829,237.664 82.772,237.976 82.964 C 238.243 83.129,238.366 83.515,238.249 83.821 C 237.888 84.760,238.444 85.572,239.446 85.572 C 240.238 85.572,240.398 85.772,240.398 86.766 C 240.398 87.782,240.550 87.960,241.417 87.960 C 242.085 87.960,242.337 87.802,242.151 87.501 C 241.992 87.244,242.040 87.148,242.260 87.284 C 242.476 87.418,242.573 88.072,242.476 88.739 C 242.316 89.825,242.405 89.950,243.338 89.950 C 244.194 89.950,244.378 90.134,244.378 90.989 C 244.378 91.933,244.499 92.013,245.716 91.871 C 247.022 91.719,247.049 91.745,246.877 93.022 C 246.718 94.207,246.797 94.328,247.729 94.328 C 248.559 94.328,248.756 94.519,248.756 95.323 C 248.756 96.202,248.930 96.322,250.249 96.350 C 251.070 96.367,251.497 96.478,251.199 96.597 C 250.741 96.779,250.741 96.866,251.199 97.157 C 251.596 97.408,251.608 97.502,251.244 97.506 C 250.970 97.510,250.746 97.692,250.746 97.910 C 250.746 98.129,251.262 98.308,251.892 98.308 C 252.521 98.308,253.268 98.587,253.551 98.928 C 253.839 99.274,253.878 99.494,253.640 99.425 C 253.405 99.358,253.196 99.438,253.174 99.602 C 253.055 100.498,253.224 100.697,254.106 100.697 C 254.640 100.697,255.190 100.879,255.327 101.101 C 255.465 101.323,255.742 101.404,255.943 101.279 C 256.145 101.155,256.197 101.346,256.059 101.704 C 255.858 102.230,255.738 102.254,255.437 101.824 C 255.140 101.402,255.097 101.416,255.228 101.891 C 255.318 102.219,255.735 102.488,256.154 102.488 C 256.689 102.488,256.953 102.813,257.041 103.582 C 257.140 104.442,257.375 104.677,258.136 104.677 C 258.669 104.677,259.104 104.866,259.104 105.098 C 259.104 105.330,259.271 105.417,259.475 105.291 C 259.679 105.165,259.975 105.271,260.133 105.528 C 260.313 105.819,260.249 105.887,259.962 105.710 C 259.671 105.530,259.502 105.727,259.502 106.245 C 259.502 106.848,259.759 107.065,260.470 107.065 C 261.170 107.065,261.472 107.312,261.564 107.960 C 261.646 108.536,262.012 108.901,262.587 108.983 C 263.235 109.075,263.483 109.377,263.483 110.077 C 263.483 110.789,263.700 111.045,264.302 111.045 C 264.842 111.045,265.026 110.875,264.841 110.547 C 264.635 110.183,264.708 110.188,265.116 110.568 C 265.421 110.854,265.672 111.570,265.672 112.160 C 265.672 112.825,265.899 113.254,266.269 113.287 C 266.597 113.317,267.077 113.362,267.336 113.387 C 267.594 113.412,267.863 113.836,267.933 114.328 C 268.014 114.904,268.380 115.269,268.955 115.351 C 269.596 115.442,269.851 115.746,269.851 116.419 C 269.851 117.141,270.106 117.398,270.945 117.523 C 271.547 117.612,262.010 117.758,249.751 117.847 L 227.463 118.010 227.569 96.643 L 227.675 75.275 228.763 75.110 C 229.361 75.019,229.865 74.918,229.881 74.886 C 229.898 74.853,229.833 75.363,229.737 76.020 M274.627 76.664 C 274.627 76.992,274.448 77.150,274.229 77.015 C 274.010 76.880,273.831 76.500,273.831 76.172 C 273.831 75.844,274.010 75.686,274.229 75.821 C 274.448 75.956,274.627 76.336,274.627 76.664 M290.149 88.733 C 290.149 88.940,289.767 89.035,289.299 88.945 C 288.013 88.697,287.891 88.358,289.088 88.358 C 289.672 88.358,290.149 88.527,290.149 88.733 M245.546 89.321 C 245.988 89.854,245.765 89.907,244.454 89.583 C 244.302 89.545,244.775 88.756,244.950 88.756 C 245.020 88.756,245.288 89.010,245.546 89.321 M307.634 104.245 C 307.668 103.471,308.856 103.397,308.856 104.169 C 308.856 104.474,308.677 104.613,308.458 104.478 C 308.237 104.341,308.060 104.632,308.060 105.127 C 308.060 106.000,308.045 106.003,307.475 105.250 C 307.154 104.825,306.898 104.209,306.906 103.881 C 306.916 103.492,307.041 103.561,307.264 104.080 C 307.515 104.665,307.613 104.709,307.634 104.245 M269.453 114.186 C 269.453 114.382,269.184 114.645,268.856 114.771 C 268.249 115.004,268.041 114.580,268.524 114.096 C 268.904 113.716,269.453 113.769,269.453 114.186 M321.168 116.157 C 320.949 116.232,320.473 116.053,320.111 115.759 C 319.531 115.288,319.488 115.319,319.750 116.020 C 319.977 116.627,319.937 116.706,319.581 116.353 C 318.804 115.583,319.485 115.045,320.584 115.560 C 321.124 115.813,321.387 116.082,321.168 116.157 M276.915 146.766 C 263.179 146.824,240.701 146.824,226.965 146.766 C 213.229 146.708,224.468 146.661,251.940 146.661 C 279.413 146.661,290.652 146.708,276.915 146.766 M119.963 151.701 C 119.496 152.458,119.380 155.163,119.804 155.425 C 120.385 155.784,120.324 168.074,119.738 168.660 C 119.389 169.009,119.393 169.260,119.755 169.696 C 120.093 170.103,120.104 170.314,119.793 170.417 C 119.485 170.520,119.472 170.877,119.751 171.610 C 120.158 172.680,122.665 173.179,123.209 172.299 C 123.337 172.091,133.829 171.980,148.183 172.035 L 172.935 172.130 148.259 172.341 L 123.582 172.552 148.557 172.633 C 162.294 172.677,173.532 172.575,173.532 172.406 C 173.532 172.238,173.308 171.859,173.035 171.565 C 172.761 171.271,173.099 171.433,173.785 171.925 C 175.637 173.251,176.606 172.787,176.651 170.551 C 176.671 169.580,176.514 168.678,176.304 168.548 C 175.780 168.224,175.794 155.622,176.318 155.622 C 177.064 155.622,176.793 151.756,176.027 151.463 C 175.649 151.317,175.273 151.395,175.193 151.636 C 175.093 151.936,174.852 151.912,174.424 151.559 C 174.049 151.249,173.747 151.203,173.667 151.443 C 173.530 151.849,122.465 151.859,121.808 151.453 C 121.629 151.343,121.390 151.609,121.277 152.044 C 121.163 152.480,121.262 152.836,121.497 152.836 C 121.732 152.836,121.816 152.944,121.684 153.075 C 121.552 153.207,121.030 153.006,120.523 152.628 C 119.927 152.184,119.848 152.025,120.299 152.177 C 120.753 152.331,120.995 152.209,120.995 151.828 C 120.995 151.133,120.363 151.055,119.963 151.701 M174.226 165.274 C 174.153 167.080,174.092 165.602,174.092 161.990 C 174.092 158.378,174.153 156.900,174.226 158.706 C 174.300 160.512,174.300 163.468,174.226 165.274 M120.158 186.043 C 119.721 186.645,119.640 187.294,119.856 188.458 C 120.324 190.966,120.264 202.102,119.782 202.400 C 119.493 202.579,119.491 202.811,119.778 203.157 C 120.006 203.431,120.093 203.755,119.971 203.876 C 119.849 203.998,120.655 204.087,121.761 204.074 C 123.538 204.053,123.714 203.977,123.279 203.418 C 122.856 202.876,122.874 202.855,123.410 203.272 C 123.895 203.650,141.420 203.783,202.316 203.869 L 280.597 203.980 280.597 196.398 C 280.597 190.884,280.461 188.670,280.100 188.280 C 279.701 187.851,279.701 187.800,280.100 188.025 C 280.443 188.219,280.597 187.978,280.597 187.245 C 280.597 186.469,280.438 186.245,280.005 186.411 C 279.679 186.536,279.432 186.510,279.455 186.354 C 279.640 185.114,278.493 184.908,277.718 186.041 C 277.541 186.298,277.423 186.310,277.419 186.070 C 277.415 185.805,251.801 185.706,201.178 185.774 C 159.249 185.831,124.001 185.729,122.850 185.548 C 120.982 185.255,120.693 185.309,120.158 186.043 M120.197 217.862 C 119.575 218.858,119.349 220.815,119.821 221.107 C 120.334 221.424,120.317 233.910,119.804 234.227 C 118.880 234.798,119.645 237.804,120.748 237.937 C 121.407 238.016,121.793 237.870,121.797 237.539 C 121.802 237.155,121.904 237.175,122.181 237.612 C 122.511 238.134,122.646 238.122,123.255 237.512 C 123.919 236.849,123.918 236.816,123.246 236.816 C 122.855 236.816,122.655 236.630,122.798 236.399 C 122.978 236.108,123.209 236.108,123.561 236.401 C 123.912 236.692,147.326 236.789,200.281 236.718 C 265.207 236.632,276.490 236.699,276.457 237.171 C 276.435 237.476,276.667 237.813,276.971 237.919 C 277.308 238.038,277.415 237.938,277.246 237.664 C 277.093 237.416,277.143 237.214,277.356 237.214 C 277.570 237.214,277.835 237.438,277.946 237.711 C 278.098 238.086,278.253 238.061,278.571 237.612 C 278.857 237.207,278.995 237.175,278.999 237.512 C 279.007 238.212,280.066 238.134,280.343 237.413 C 280.469 237.085,280.354 236.813,280.087 236.810 C 279.731 236.805,279.739 236.717,280.119 236.476 C 280.723 236.092,280.761 218.212,280.159 217.263 C 279.874 216.812,279.811 216.821,279.801 217.313 C 279.794 217.665,279.669 217.747,279.496 217.512 C 278.864 216.652,120.736 216.999,120.197 217.862 M119.963 251.204 C 119.496 251.960,119.380 254.665,119.804 254.927 C 120.385 255.286,120.324 267.576,119.738 268.162 C 119.389 268.511,119.393 268.762,119.755 269.198 C 120.093 269.606,120.104 269.816,119.793 269.920 C 119.485 270.023,119.472 270.379,119.751 271.113 C 120.158 272.183,122.665 272.681,123.209 271.801 C 123.528 271.285,276.498 271.326,276.817 271.843 C 276.953 272.063,277.815 272.183,278.731 272.110 L 280.398 271.976 280.500 261.685 C 280.558 255.807,280.446 251.297,280.239 251.169 C 280.040 251.046,244.388 251.035,201.013 251.144 C 157.638 251.254,122.003 251.197,121.824 251.018 C 121.646 250.840,121.403 251.064,121.285 251.516 C 121.166 251.970,121.261 252.338,121.497 252.338 C 121.732 252.338,121.816 252.446,121.684 252.578 C 121.552 252.710,121.030 252.509,120.523 252.131 C 119.927 251.687,119.848 251.527,120.299 251.680 C 120.753 251.833,120.995 251.712,120.995 251.331 C 120.995 250.635,120.363 250.558,119.963 251.204 M161.922 272.139 C 183.009 272.196,217.397 272.196,238.340 272.139 C 259.283 272.082,242.030 272.036,200.000 272.036 C 157.970 272.036,140.835 272.082,161.922 272.139 M120.158 285.545 C 119.721 286.147,119.640 286.796,119.856 287.960 C 120.324 290.468,120.264 301.604,119.782 301.902 C 119.493 302.081,119.491 302.314,119.778 302.659 C 120.006 302.933,120.093 303.257,119.971 303.379 C 119.849 303.501,120.655 303.589,121.761 303.576 C 123.538 303.556,123.714 303.479,123.279 302.921 C 122.856 302.378,122.874 302.357,123.410 302.775 C 123.895 303.153,141.420 303.285,202.316 303.372 L 280.597 303.483 280.597 295.900 C 280.597 290.386,280.461 288.172,280.100 287.782 C 279.701 287.354,279.701 287.303,280.100 287.527 C 280.443 287.721,280.597 287.480,280.597 286.747 C 280.597 285.971,280.438 285.747,280.005 285.913 C 279.679 286.038,279.432 286.013,279.455 285.856 C 279.640 284.617,278.493 284.410,277.718 285.543 C 277.541 285.801,277.423 285.812,277.419 285.572 C 277.415 285.308,251.801 285.209,201.178 285.277 C 159.249 285.333,124.001 285.231,122.850 285.051 C 120.982 284.758,120.693 284.811,120.158 285.545 " stroke="none" fill="#a4a4a4" fill-rule="evenodd"></path><path id="path1" d="M225.172 32.984 C 225.021 33.560,225.148 33.685,225.730 33.533 C 226.321 33.378,226.386 33.216,226.029 32.787 C 225.445 32.084,225.405 32.093,225.172 32.984 M110.348 33.333 C 131.090 33.390,165.030 33.390,185.771 33.333 C 206.512 33.276,189.542 33.230,148.060 33.230 C 106.577 33.230,89.607 33.276,110.348 33.333 M71.043 199.005 C 71.043 289.303,71.089 326.244,71.144 281.095 C 71.200 235.945,71.200 162.065,71.144 116.915 C 71.089 71.766,71.043 108.706,71.043 199.005 M239.037 44.229 C 238.616 44.638,238.392 45.092,238.539 45.239 C 238.686 45.386,238.806 45.286,238.806 45.018 C 238.806 44.750,238.985 44.641,239.204 44.776 C 239.423 44.911,239.602 44.805,239.602 44.539 C 239.602 44.239,239.904 44.329,240.398 44.776 C 241.378 45.663,241.457 45.216,240.498 44.214 C 239.823 43.509,239.777 43.509,239.037 44.229 M240.025 45.822 C 239.990 46.738,241.027 47.557,241.419 46.923 C 241.607 46.618,241.547 46.548,241.252 46.730 C 240.974 46.902,240.642 46.649,240.420 46.095 C 240.177 45.489,240.042 45.396,240.025 45.822 M95.571 60.240 C 95.241 60.638,95.150 97.266,95.224 199.444 L 95.325 338.109 95.423 199.383 C 95.500 92.126,95.631 60.548,96.000 60.179 C 96.263 59.916,96.374 59.701,96.248 59.701 C 96.121 59.701,95.817 59.944,95.571 60.240 M197.815 102.676 C 197.820 125.951,197.918 144.902,198.031 144.788 C 198.293 144.526,198.262 60.816,198.000 60.554 C 197.892 60.446,197.809 79.401,197.815 102.676 M257.516 62.047 C 256.944 62.206,256.709 62.436,256.960 62.591 C 257.199 62.739,257.735 62.603,258.150 62.288 C 258.982 61.659,258.952 61.647,257.516 62.047 M263.881 64.816 C 263.881 64.974,264.239 65.131,264.677 65.164 C 265.114 65.197,265.473 65.094,265.473 64.936 C 265.473 64.777,265.114 64.620,264.677 64.587 C 264.239 64.554,263.881 64.657,263.881 64.816 M227.833 71.995 C 227.953 72.189,227.784 72.569,227.458 72.839 C 226.944 73.266,226.878 76.271,226.960 95.472 L 227.055 117.612 227.259 95.323 L 227.463 73.035 228.374 73.084 C 229.240 73.130,229.252 73.096,228.611 72.387 C 227.909 71.612,227.454 71.382,227.833 71.995 M273.831 76.172 C 273.831 76.500,274.010 76.880,274.229 77.015 C 274.448 77.150,274.627 76.992,274.627 76.664 C 274.627 76.336,274.448 75.956,274.229 75.821 C 274.010 75.686,273.831 75.844,273.831 76.172 M286.050 85.189 C 285.882 85.832,285.975 85.977,286.442 85.798 C 286.877 85.631,286.985 85.742,286.815 86.185 C 286.672 86.557,286.741 86.705,286.987 86.554 C 287.213 86.414,287.663 86.519,287.987 86.788 C 288.477 87.195,288.530 87.157,288.300 86.558 C 288.095 86.025,288.160 85.924,288.551 86.165 C 288.912 86.389,288.984 86.338,288.777 86.005 C 288.612 85.737,288.231 85.612,287.931 85.727 C 287.631 85.843,287.134 85.579,286.828 85.141 C 286.274 84.351,286.269 84.351,286.050 85.189 M289.154 88.358 C 288.498 88.525,288.139 88.697,288.358 88.740 C 288.577 88.782,289.070 88.877,289.453 88.950 C 289.836 89.024,290.149 88.910,290.149 88.698 C 290.149 88.485,290.316 88.414,290.520 88.540 C 290.724 88.666,291.003 88.587,291.140 88.365 C 291.420 87.912,290.914 87.910,289.154 88.358 M244.577 89.154 C 244.442 89.373,244.386 89.566,244.454 89.583 C 245.765 89.907,245.988 89.854,245.546 89.321 C 244.988 88.649,244.899 88.634,244.577 89.154 M302.488 98.929 C 302.488 99.313,302.298 99.440,301.990 99.263 C 301.716 99.106,301.632 99.130,301.803 99.318 C 302.421 99.997,303.191 99.832,302.990 99.062 C 302.751 98.149,302.488 98.079,302.488 98.929 M306.070 103.212 C 306.070 103.408,306.329 103.468,306.646 103.346 C 307.026 103.201,307.150 103.316,307.009 103.683 C 306.891 103.990,307.079 104.648,307.427 105.145 L 308.060 106.048 308.060 105.140 C 308.060 104.636,308.237 104.341,308.458 104.478 C 308.677 104.613,308.856 104.444,308.856 104.103 C 308.856 103.342,307.973 103.461,307.556 104.279 C 307.378 104.628,307.337 104.432,307.458 103.806 C 307.629 102.920,307.527 102.746,306.867 102.796 C 306.428 102.829,306.070 103.016,306.070 103.212 M268.249 114.645 C 267.847 115.397,267.876 115.420,268.633 114.947 C 269.494 114.409,269.720 113.831,269.069 113.831 C 268.858 113.831,268.489 114.197,268.249 114.645 M319.358 115.495 C 319.224 115.712,319.324 116.099,319.581 116.353 C 319.937 116.706,319.977 116.627,319.750 116.020 C 319.488 115.319,319.531 115.288,320.111 115.759 C 320.473 116.053,320.949 116.232,321.168 116.157 C 321.387 116.082,321.124 115.813,320.584 115.560 C 319.947 115.262,319.517 115.239,319.358 115.495 M227.524 117.711 C 227.356 117.983,243.550 117.978,264.080 117.702 C 268.458 117.643,262.065 117.554,249.874 117.504 C 237.683 117.454,227.626 117.547,227.524 117.711 M325.604 120.275 C 325.586 120.864,325.779 121.474,326.032 121.630 C 326.325 121.811,326.383 121.739,326.192 121.429 C 326.023 121.156,326.213 120.568,326.628 120.081 C 327.174 119.440,327.194 119.348,326.705 119.725 C 326.172 120.137,326.009 120.135,325.841 119.718 C 325.728 119.435,325.621 119.686,325.604 120.275 M226.965 146.766 C 240.701 146.824,263.179 146.824,276.915 146.766 C 290.652 146.708,279.413 146.661,251.940 146.661 C 224.468 146.661,213.229 146.708,226.965 146.766 M120.995 151.797 C 120.995 152.101,120.688 152.324,120.314 152.294 C 119.930 152.263,119.600 152.546,119.558 152.943 C 119.507 153.426,119.543 153.458,119.672 153.043 C 119.886 152.351,120.434 152.250,120.796 152.836 C 120.931 153.055,121.255 153.220,121.516 153.202 C 121.858 153.180,121.863 153.119,121.535 152.984 C 121.284 152.882,121.171 152.448,121.283 152.021 C 121.394 151.593,121.375 151.244,121.240 151.244 C 121.105 151.244,120.995 151.493,120.995 151.797 M121.863 151.449 C 122.193 151.778,173.532 151.871,173.532 151.542 C 173.532 151.378,161.861 151.244,147.595 151.244 C 133.330 151.244,121.751 151.336,121.863 151.449 M119.403 161.990 C 119.403 166.431,119.542 168.718,119.801 168.557 C 120.039 168.410,120.199 165.775,120.199 161.990 C 120.199 158.205,120.039 155.570,119.801 155.423 C 119.542 155.263,119.403 157.549,119.403 161.990 M174.092 161.990 C 174.092 165.602,174.153 167.080,174.226 165.274 C 174.300 163.468,174.300 160.512,174.226 158.706 C 174.153 156.900,174.092 158.378,174.092 161.990 M175.920 161.967 C 175.920 165.767,176.080 168.410,176.318 168.557 C 176.578 168.717,176.716 166.505,176.716 162.213 C 176.716 158.084,176.568 155.622,176.318 155.622 C 176.070 155.622,175.920 158.002,175.920 161.967 M173.174 171.841 C 173.476 172.333,173.979 172.736,174.291 172.736 C 174.604 172.736,174.784 172.690,174.693 172.633 C 174.602 172.576,174.099 172.173,173.575 171.737 L 172.624 170.945 173.174 171.841 M123.246 172.239 C 123.144 172.403,134.310 172.537,148.060 172.537 C 161.809 172.537,172.975 172.403,172.874 172.239 C 172.772 172.075,161.606 171.940,148.060 171.940 C 134.513 171.940,123.347 172.075,123.246 172.239 M122.929 185.522 C 124.140 185.723,157.999 185.832,201.238 185.774 C 251.821 185.706,277.415 185.805,277.419 186.070 C 277.423 186.300,277.548 186.283,277.718 186.030 C 277.878 185.789,278.279 185.490,278.607 185.365 C 278.935 185.240,243.562 185.144,200.000 185.153 C 152.291 185.162,121.644 185.309,122.929 185.522 M119.449 194.750 C 119.419 199.916,119.540 202.549,119.801 202.388 C 120.283 202.090,120.301 190.766,119.824 188.458 C 119.603 187.390,119.479 189.463,119.449 194.750 M123.332 203.483 C 123.850 204.142,127.917 204.174,200.148 204.081 L 276.418 203.982 200.239 203.881 C 140.109 203.800,123.925 203.674,123.423 203.283 C 122.859 202.843,122.848 202.866,123.332 203.483 M160.728 217.214 C 182.472 217.271,217.935 217.271,239.534 217.214 C 261.134 217.157,243.343 217.111,200.000 217.111 C 156.657 217.111,138.984 217.157,160.728 217.214 M279.244 218.840 C 279.115 219.049,279.274 219.322,279.598 219.446 C 279.932 219.574,280.084 219.936,279.951 220.283 C 279.822 220.620,279.805 220.896,279.915 220.896 C 280.024 220.896,280.203 220.664,280.311 220.381 C 280.556 219.744,279.568 218.316,279.244 218.840 M119.403 227.662 C 119.403 232.102,119.542 234.389,119.801 234.229 C 120.039 234.082,120.199 231.446,120.199 227.662 C 120.199 223.877,120.039 221.242,119.801 221.095 C 119.542 220.934,119.403 223.221,119.403 227.662 M122.798 236.399 C 122.656 236.628,122.841 236.816,123.209 236.816 C 123.759 236.816,123.790 236.923,123.383 237.413 C 122.943 237.943,131.464 238.010,199.667 238.010 C 272.525 238.010,276.446 237.974,276.446 237.313 C 276.446 236.652,272.592 236.622,200.256 236.718 C 147.319 236.789,123.912 236.692,123.561 236.401 C 123.209 236.108,122.978 236.108,122.798 236.399 M120.995 251.299 C 120.995 251.603,120.688 251.827,120.314 251.797 C 119.930 251.765,119.600 252.049,119.558 252.446 C 119.507 252.929,119.543 252.960,119.672 252.545 C 119.886 251.854,120.434 251.753,120.796 252.338 C 120.931 252.557,121.255 252.722,121.516 252.705 C 121.858 252.682,121.863 252.622,121.535 252.487 C 121.284 252.384,121.171 251.951,121.283 251.523 C 121.394 251.096,121.375 250.746,121.240 250.746 C 121.105 250.746,120.995 250.995,120.995 251.299 M121.861 250.949 C 122.123 251.211,279.077 251.205,279.339 250.943 C 279.447 250.835,244.013 250.746,200.597 250.746 C 157.181 250.746,121.750 250.838,121.861 250.949 M119.403 261.493 C 119.403 265.933,119.542 268.220,119.801 268.060 C 120.039 267.912,120.199 265.277,120.199 261.493 C 120.199 257.708,120.039 255.073,119.801 254.925 C 119.542 254.765,119.403 257.052,119.403 261.493 M123.246 271.741 C 123.144 271.905,157.684 272.040,200.000 272.040 C 242.316 272.040,276.856 271.905,276.754 271.741 C 276.653 271.577,242.113 271.443,200.000 271.443 C 157.887 271.443,123.347 271.577,123.246 271.741 M122.929 285.025 C 124.140 285.226,157.999 285.335,201.238 285.277 C 251.821 285.209,277.415 285.308,277.419 285.572 C 277.423 285.803,277.548 285.786,277.718 285.532 C 277.878 285.292,278.279 284.992,278.607 284.867 C 278.935 284.742,243.562 284.647,200.000 284.655 C 152.291 284.664,121.644 284.811,122.929 285.025 M119.449 294.252 C 119.419 299.418,119.540 302.052,119.801 301.891 C 120.283 301.593,120.301 290.269,119.824 287.960 C 119.603 286.893,119.479 288.966,119.449 294.252 M123.332 302.985 C 123.850 303.645,127.917 303.676,200.148 303.583 L 276.418 303.485 200.239 303.383 C 140.109 303.303,123.925 303.177,123.423 302.785 C 122.859 302.345,122.848 302.368,123.332 302.985 " stroke="none" fill="#a8a4a4" fill-rule="evenodd"></path><path id="path2" d="M225.172 32.984 C 225.021 33.560,225.148 33.685,225.730 33.533 C 226.321 33.378,226.386 33.216,226.029 32.787 C 225.445 32.084,225.405 32.093,225.172 32.984 M110.348 33.333 C 131.090 33.390,165.030 33.390,185.771 33.333 C 206.512 33.276,189.542 33.230,148.060 33.230 C 106.577 33.230,89.607 33.276,110.348 33.333 M71.043 199.005 C 71.043 289.303,71.089 326.244,71.144 281.095 C 71.200 235.945,71.200 162.065,71.144 116.915 C 71.089 71.766,71.043 108.706,71.043 199.005 M239.037 44.229 C 238.616 44.638,238.392 45.092,238.539 45.239 C 238.686 45.386,238.806 45.286,238.806 45.018 C 238.806 44.750,238.985 44.641,239.204 44.776 C 239.423 44.911,239.602 44.805,239.602 44.539 C 239.602 44.239,239.904 44.329,240.398 44.776 C 241.378 45.663,241.457 45.216,240.498 44.214 C 239.823 43.509,239.777 43.509,239.037 44.229 M240.025 45.822 C 239.990 46.738,241.027 47.557,241.419 46.923 C 241.607 46.618,241.547 46.548,241.252 46.730 C 240.974 46.902,240.642 46.649,240.420 46.095 C 240.177 45.489,240.042 45.396,240.025 45.822 M95.571 60.240 C 95.241 60.638,95.150 97.266,95.224 199.444 L 95.325 338.109 95.423 199.383 C 95.500 92.126,95.631 60.548,96.000 60.179 C 96.263 59.916,96.374 59.701,96.248 59.701 C 96.121 59.701,95.817 59.944,95.571 60.240 M197.815 102.676 C 197.820 125.951,197.918 144.902,198.031 144.788 C 198.293 144.526,198.262 60.816,198.000 60.554 C 197.892 60.446,197.809 79.401,197.815 102.676 M257.516 62.047 C 256.944 62.206,256.709 62.436,256.960 62.591 C 257.199 62.739,257.735 62.603,258.150 62.288 C 258.982 61.659,258.952 61.647,257.516 62.047 M263.881 64.816 C 263.881 64.974,264.239 65.131,264.677 65.164 C 265.114 65.197,265.473 65.094,265.473 64.936 C 265.473 64.777,265.114 64.620,264.677 64.587 C 264.239 64.554,263.881 64.657,263.881 64.816 M227.833 71.995 C 227.953 72.189,227.784 72.569,227.458 72.839 C 226.944 73.266,226.878 76.271,226.960 95.472 L 227.055 117.612 227.259 95.323 L 227.463 73.035 228.374 73.084 C 229.240 73.130,229.252 73.096,228.611 72.387 C 227.909 71.612,227.454 71.382,227.833 71.995 M273.831 76.172 C 273.831 76.500,274.010 76.880,274.229 77.015 C 274.448 77.150,274.627 76.992,274.627 76.664 C 274.627 76.336,274.448 75.956,274.229 75.821 C 274.010 75.686,273.831 75.844,273.831 76.172 M286.050 85.189 C 285.882 85.832,285.975 85.977,286.442 85.798 C 286.877 85.631,286.985 85.742,286.815 86.185 C 286.672 86.557,286.741 86.705,286.987 86.554 C 287.213 86.414,287.663 86.519,287.987 86.788 C 288.477 87.195,288.530 87.157,288.300 86.558 C 288.095 86.025,288.160 85.924,288.551 86.165 C 288.912 86.389,288.984 86.338,288.777 86.005 C 288.612 85.737,288.231 85.612,287.931 85.727 C 287.631 85.843,287.134 85.579,286.828 85.141 C 286.274 84.351,286.269 84.351,286.050 85.189 M289.154 88.358 C 288.498 88.525,288.139 88.697,288.358 88.740 C 288.577 88.782,289.070 88.877,289.453 88.950 C 289.836 89.024,290.149 88.910,290.149 88.698 C 290.149 88.485,290.316 88.414,290.520 88.540 C 290.724 88.666,291.003 88.587,291.140 88.365 C 291.420 87.912,290.914 87.910,289.154 88.358 M244.577 89.154 C 244.442 89.373,244.386 89.566,244.454 89.583 C 245.765 89.907,245.988 89.854,245.546 89.321 C 244.988 88.649,244.899 88.634,244.577 89.154 M302.488 98.929 C 302.488 99.313,302.298 99.440,301.990 99.263 C 301.716 99.106,301.632 99.130,301.803 99.318 C 302.421 99.997,303.191 99.832,302.990 99.062 C 302.751 98.149,302.488 98.079,302.488 98.929 M306.070 103.212 C 306.070 103.408,306.329 103.468,306.646 103.346 C 307.026 103.201,307.150 103.316,307.009 103.683 C 306.891 103.990,307.079 104.648,307.427 105.145 L 308.060 106.048 308.060 105.140 C 308.060 104.636,308.237 104.341,308.458 104.478 C 308.677 104.613,308.856 104.444,308.856 104.103 C 308.856 103.342,307.973 103.461,307.556 104.279 C 307.378 104.628,307.337 104.432,307.458 103.806 C 307.629 102.920,307.527 102.746,306.867 102.796 C 306.428 102.829,306.070 103.016,306.070 103.212 M268.249 114.645 C 267.847 115.397,267.876 115.420,268.633 114.947 C 269.494 114.409,269.720 113.831,269.069 113.831 C 268.858 113.831,268.489 114.197,268.249 114.645 M319.358 115.495 C 319.224 115.712,319.324 116.099,319.581 116.353 C 319.937 116.706,319.977 116.627,319.750 116.020 C 319.488 115.319,319.531 115.288,320.111 115.759 C 320.473 116.053,320.949 116.232,321.168 116.157 C 321.387 116.082,321.124 115.813,320.584 115.560 C 319.947 115.262,319.517 115.239,319.358 115.495 M227.524 117.711 C 227.356 117.983,243.550 117.978,264.080 117.702 C 268.458 117.643,262.065 117.554,249.874 117.504 C 237.683 117.454,227.626 117.547,227.524 117.711 M325.604 120.275 C 325.586 120.864,325.779 121.474,326.032 121.630 C 326.325 121.811,326.383 121.739,326.192 121.429 C 326.023 121.156,326.213 120.568,326.628 120.081 C 327.174 119.440,327.194 119.348,326.705 119.725 C 326.172 120.137,326.009 120.135,325.841 119.718 C 325.728 119.435,325.621 119.686,325.604 120.275 M226.965 146.766 C 240.701 146.824,263.179 146.824,276.915 146.766 C 290.652 146.708,279.413 146.661,251.940 146.661 C 224.468 146.661,213.229 146.708,226.965 146.766 M120.995 151.797 C 120.995 152.101,120.688 152.324,120.314 152.294 C 119.930 152.263,119.600 152.546,119.558 152.943 C 119.507 153.426,119.543 153.458,119.672 153.043 C 119.886 152.351,120.434 152.250,120.796 152.836 C 120.931 153.055,121.255 153.220,121.516 153.202 C 121.858 153.180,121.863 153.119,121.535 152.984 C 121.284 152.882,121.171 152.448,121.283 152.021 C 121.394 151.593,121.375 151.244,121.240 151.244 C 121.105 151.244,120.995 151.493,120.995 151.797 M121.863 151.449 C 122.193 151.778,173.532 151.871,173.532 151.542 C 173.532 151.378,161.861 151.244,147.595 151.244 C 133.330 151.244,121.751 151.336,121.863 151.449 M119.403 161.990 C 119.403 166.431,119.542 168.718,119.801 168.557 C 120.039 168.410,120.199 165.775,120.199 161.990 C 120.199 158.205,120.039 155.570,119.801 155.423 C 119.542 155.263,119.403 157.549,119.403 161.990 M174.092 161.990 C 174.092 165.602,174.153 167.080,174.226 165.274 C 174.300 163.468,174.300 160.512,174.226 158.706 C 174.153 156.900,174.092 158.378,174.092 161.990 M175.920 161.967 C 175.920 165.767,176.080 168.410,176.318 168.557 C 176.578 168.717,176.716 166.505,176.716 162.213 C 176.716 158.084,176.568 155.622,176.318 155.622 C 176.070 155.622,175.920 158.002,175.920 161.967 M173.174 171.841 C 173.476 172.333,173.979 172.736,174.291 172.736 C 174.604 172.736,174.784 172.690,174.693 172.633 C 174.602 172.576,174.099 172.173,173.575 171.737 L 172.624 170.945 173.174 171.841 M123.246 172.239 C 123.144 172.403,134.310 172.537,148.060 172.537 C 161.809 172.537,172.975 172.403,172.874 172.239 C 172.772 172.075,161.606 171.940,148.060 171.940 C 134.513 171.940,123.347 172.075,123.246 172.239 M122.929 185.522 C 124.140 185.723,157.999 185.832,201.238 185.774 C 251.821 185.706,277.415 185.805,277.419 186.070 C 277.423 186.300,277.548 186.283,277.718 186.030 C 277.878 185.789,278.279 185.490,278.607 185.365 C 278.935 185.240,243.562 185.144,200.000 185.153 C 152.291 185.162,121.644 185.309,122.929 185.522 M119.449 194.750 C 119.419 199.916,119.540 202.549,119.801 202.388 C 120.283 202.090,120.301 190.766,119.824 188.458 C 119.603 187.390,119.479 189.463,119.449 194.750 M123.332 203.483 C 123.850 204.142,127.917 204.174,200.148 204.081 L 276.418 203.982 200.239 203.881 C 140.109 203.800,123.925 203.674,123.423 203.283 C 122.859 202.843,122.848 202.866,123.332 203.483 M160.728 217.214 C 182.472 217.271,217.935 217.271,239.534 217.214 C 261.134 217.157,243.343 217.111,200.000 217.111 C 156.657 217.111,138.984 217.157,160.728 217.214 M279.244 218.840 C 279.115 219.049,279.274 219.322,279.598 219.446 C 279.932 219.574,280.084 219.936,279.951 220.283 C 279.822 220.620,279.805 220.896,279.915 220.896 C 280.024 220.896,280.203 220.664,280.311 220.381 C 280.556 219.744,279.568 218.316,279.244 218.840 M119.403 227.662 C 119.403 232.102,119.542 234.389,119.801 234.229 C 120.039 234.082,120.199 231.446,120.199 227.662 C 120.199 223.877,120.039 221.242,119.801 221.095 C 119.542 220.934,119.403 223.221,119.403 227.662 M122.798 236.399 C 122.656 236.628,122.841 236.816,123.209 236.816 C 123.759 236.816,123.790 236.923,123.383 237.413 C 122.943 237.943,131.464 238.010,199.667 238.010 C 272.525 238.010,276.446 237.974,276.446 237.313 C 276.446 236.652,272.592 236.622,200.256 236.718 C 147.319 236.789,123.912 236.692,123.561 236.401 C 123.209 236.108,122.978 236.108,122.798 236.399 M120.995 251.299 C 120.995 251.603,120.688 251.827,120.314 251.797 C 119.930 251.765,119.600 252.049,119.558 252.446 C 119.507 252.929,119.543 252.960,119.672 252.545 C 119.886 251.854,120.434 251.753,120.796 252.338 C 120.931 252.557,121.255 252.722,121.516 252.705 C 121.858 252.682,121.863 252.622,121.535 252.487 C 121.284 252.384,121.171 251.951,121.283 251.523 C 121.394 251.096,121.375 250.746,121.240 250.746 C 121.105 250.746,120.995 250.995,120.995 251.299 M121.861 250.949 C 122.123 251.211,279.077 251.205,279.339 250.943 C 279.447 250.835,244.013 250.746,200.597 250.746 C 157.181 250.746,121.750 250.838,121.861 250.949 M119.403 261.493 C 119.403 265.933,119.542 268.220,119.801 268.060 C 120.039 267.912,120.199 265.277,120.199 261.493 C 120.199 257.708,120.039 255.073,119.801 254.925 C 119.542 254.765,119.403 257.052,119.403 261.493 M123.246 271.741 C 123.144 271.905,157.684 272.040,200.000 272.040 C 242.316 272.040,276.856 271.905,276.754 271.741 C 276.653 271.577,242.113 271.443,200.000 271.443 C 157.887 271.443,123.347 271.577,123.246 271.741 M122.929 285.025 C 124.140 285.226,157.999 285.335,201.238 285.277 C 251.821 285.209,277.415 285.308,277.419 285.572 C 277.423 285.803,277.548 285.786,277.718 285.532 C 277.878 285.292,278.279 284.992,278.607 284.867 C 278.935 284.742,243.562 284.647,200.000 284.655 C 152.291 284.664,121.644 284.811,122.929 285.025 M119.449 294.252 C 119.419 299.418,119.540 302.052,119.801 301.891 C 120.283 301.593,120.301 290.269,119.824 287.960 C 119.603 286.893,119.479 288.966,119.449 294.252 M123.332 302.985 C 123.850 303.645,127.917 303.676,200.148 303.583 L 276.418 303.485 200.239 303.383 C 140.109 303.303,123.925 303.177,123.423 302.785 C 122.859 302.345,122.848 302.368,123.332 302.985 " stroke="none" fill="#a8a4a4" fill-rule="evenodd"></path><path id="path3" d="M225.172 32.984 C 225.021 33.560,225.148 33.685,225.730 33.533 C 226.321 33.378,226.386 33.216,226.029 32.787 C 225.445 32.084,225.405 32.093,225.172 32.984 M110.348 33.333 C 131.090 33.390,165.030 33.390,185.771 33.333 C 206.512 33.276,189.542 33.230,148.060 33.230 C 106.577 33.230,89.607 33.276,110.348 33.333 M71.043 199.005 C 71.043 289.303,71.089 326.244,71.144 281.095 C 71.200 235.945,71.200 162.065,71.144 116.915 C 71.089 71.766,71.043 108.706,71.043 199.005 M239.037 44.229 C 238.616 44.638,238.392 45.092,238.539 45.239 C 238.686 45.386,238.806 45.286,238.806 45.018 C 238.806 44.750,238.985 44.641,239.204 44.776 C 239.423 44.911,239.602 44.805,239.602 44.539 C 239.602 44.239,239.904 44.329,240.398 44.776 C 241.378 45.663,241.457 45.216,240.498 44.214 C 239.823 43.509,239.777 43.509,239.037 44.229 M240.025 45.822 C 239.990 46.738,241.027 47.557,241.419 46.923 C 241.607 46.618,241.547 46.548,241.252 46.730 C 240.974 46.902,240.642 46.649,240.420 46.095 C 240.177 45.489,240.042 45.396,240.025 45.822 M95.571 60.240 C 95.241 60.638,95.150 97.266,95.224 199.444 L 95.325 338.109 95.423 199.383 C 95.500 92.126,95.631 60.548,96.000 60.179 C 96.263 59.916,96.374 59.701,96.248 59.701 C 96.121 59.701,95.817 59.944,95.571 60.240 M197.815 102.676 C 197.820 125.951,197.918 144.902,198.031 144.788 C 198.293 144.526,198.262 60.816,198.000 60.554 C 197.892 60.446,197.809 79.401,197.815 102.676 M257.516 62.047 C 256.944 62.206,256.709 62.436,256.960 62.591 C 257.199 62.739,257.735 62.603,258.150 62.288 C 258.982 61.659,258.952 61.647,257.516 62.047 M263.881 64.816 C 263.881 64.974,264.239 65.131,264.677 65.164 C 265.114 65.197,265.473 65.094,265.473 64.936 C 265.473 64.777,265.114 64.620,264.677 64.587 C 264.239 64.554,263.881 64.657,263.881 64.816 M227.833 71.995 C 227.953 72.189,227.784 72.569,227.458 72.839 C 226.944 73.266,226.878 76.271,226.960 95.472 L 227.055 117.612 227.259 95.323 L 227.463 73.035 228.374 73.084 C 229.240 73.130,229.252 73.096,228.611 72.387 C 227.909 71.612,227.454 71.382,227.833 71.995 M273.831 76.172 C 273.831 76.500,274.010 76.880,274.229 77.015 C 274.448 77.150,274.627 76.992,274.627 76.664 C 274.627 76.336,274.448 75.956,274.229 75.821 C 274.010 75.686,273.831 75.844,273.831 76.172 M286.050 85.189 C 285.882 85.832,285.975 85.977,286.442 85.798 C 286.877 85.631,286.985 85.742,286.815 86.185 C 286.672 86.557,286.741 86.705,286.987 86.554 C 287.213 86.414,287.663 86.519,287.987 86.788 C 288.477 87.195,288.530 87.157,288.300 86.558 C 288.095 86.025,288.160 85.924,288.551 86.165 C 288.912 86.389,288.984 86.338,288.777 86.005 C 288.612 85.737,288.231 85.612,287.931 85.727 C 287.631 85.843,287.134 85.579,286.828 85.141 C 286.274 84.351,286.269 84.351,286.050 85.189 M289.154 88.358 C 288.498 88.525,288.139 88.697,288.358 88.740 C 288.577 88.782,289.070 88.877,289.453 88.950 C 289.836 89.024,290.149 88.910,290.149 88.698 C 290.149 88.485,290.316 88.414,290.520 88.540 C 290.724 88.666,291.003 88.587,291.140 88.365 C 291.420 87.912,290.914 87.910,289.154 88.358 M244.577 89.154 C 244.442 89.373,244.386 89.566,244.454 89.583 C 245.765 89.907,245.988 89.854,245.546 89.321 C 244.988 88.649,244.899 88.634,244.577 89.154 M302.488 98.929 C 302.488 99.313,302.298 99.440,301.990 99.263 C 301.716 99.106,301.632 99.130,301.803 99.318 C 302.421 99.997,303.191 99.832,302.990 99.062 C 302.751 98.149,302.488 98.079,302.488 98.929 M306.070 103.212 C 306.070 103.408,306.329 103.468,306.646 103.346 C 307.026 103.201,307.150 103.316,307.009 103.683 C 306.891 103.990,307.079 104.648,307.427 105.145 L 308.060 106.048 308.060 105.140 C 308.060 104.636,308.237 104.341,308.458 104.478 C 308.677 104.613,308.856 104.444,308.856 104.103 C 308.856 103.342,307.973 103.461,307.556 104.279 C 307.378 104.628,307.337 104.432,307.458 103.806 C 307.629 102.920,307.527 102.746,306.867 102.796 C 306.428 102.829,306.070 103.016,306.070 103.212 M268.249 114.645 C 267.847 115.397,267.876 115.420,268.633 114.947 C 269.494 114.409,269.720 113.831,269.069 113.831 C 268.858 113.831,268.489 114.197,268.249 114.645 M319.358 115.495 C 319.224 115.712,319.324 116.099,319.581 116.353 C 319.937 116.706,319.977 116.627,319.750 116.020 C 319.488 115.319,319.531 115.288,320.111 115.759 C 320.473 116.053,320.949 116.232,321.168 116.157 C 321.387 116.082,321.124 115.813,320.584 115.560 C 319.947 115.262,319.517 115.239,319.358 115.495 M227.524 117.711 C 227.356 117.983,243.550 117.978,264.080 117.702 C 268.458 117.643,262.065 117.554,249.874 117.504 C 237.683 117.454,227.626 117.547,227.524 117.711 M325.604 120.275 C 325.586 120.864,325.779 121.474,326.032 121.630 C 326.325 121.811,326.383 121.739,326.192 121.429 C 326.023 121.156,326.213 120.568,326.628 120.081 C 327.174 119.440,327.194 119.348,326.705 119.725 C 326.172 120.137,326.009 120.135,325.841 119.718 C 325.728 119.435,325.621 119.686,325.604 120.275 M226.965 146.766 C 240.701 146.824,263.179 146.824,276.915 146.766 C 290.652 146.708,279.413 146.661,251.940 146.661 C 224.468 146.661,213.229 146.708,226.965 146.766 M120.995 151.797 C 120.995 152.101,120.688 152.324,120.314 152.294 C 119.930 152.263,119.600 152.546,119.558 152.943 C 119.507 153.426,119.543 153.458,119.672 153.043 C 119.886 152.351,120.434 152.250,120.796 152.836 C 120.931 153.055,121.255 153.220,121.516 153.202 C 121.858 153.180,121.863 153.119,121.535 152.984 C 121.284 152.882,121.171 152.448,121.283 152.021 C 121.394 151.593,121.375 151.244,121.240 151.244 C 121.105 151.244,120.995 151.493,120.995 151.797 M121.863 151.449 C 122.193 151.778,173.532 151.871,173.532 151.542 C 173.532 151.378,161.861 151.244,147.595 151.244 C 133.330 151.244,121.751 151.336,121.863 151.449 M119.403 161.990 C 119.403 166.431,119.542 168.718,119.801 168.557 C 120.039 168.410,120.199 165.775,120.199 161.990 C 120.199 158.205,120.039 155.570,119.801 155.423 C 119.542 155.263,119.403 157.549,119.403 161.990 M174.092 161.990 C 174.092 165.602,174.153 167.080,174.226 165.274 C 174.300 163.468,174.300 160.512,174.226 158.706 C 174.153 156.900,174.092 158.378,174.092 161.990 M175.920 161.967 C 175.920 165.767,176.080 168.410,176.318 168.557 C 176.578 168.717,176.716 166.505,176.716 162.213 C 176.716 158.084,176.568 155.622,176.318 155.622 C 176.070 155.622,175.920 158.002,175.920 161.967 M173.174 171.841 C 173.476 172.333,173.979 172.736,174.291 172.736 C 174.604 172.736,174.784 172.690,174.693 172.633 C 174.602 172.576,174.099 172.173,173.575 171.737 L 172.624 170.945 173.174 171.841 M123.246 172.239 C 123.144 172.403,134.310 172.537,148.060 172.537 C 161.809 172.537,172.975 172.403,172.874 172.239 C 172.772 172.075,161.606 171.940,148.060 171.940 C 134.513 171.940,123.347 172.075,123.246 172.239 M122.929 185.522 C 124.140 185.723,157.999 185.832,201.238 185.774 C 251.821 185.706,277.415 185.805,277.419 186.070 C 277.423 186.300,277.548 186.283,277.718 186.030 C 277.878 185.789,278.279 185.490,278.607 185.365 C 278.935 185.240,243.562 185.144,200.000 185.153 C 152.291 185.162,121.644 185.309,122.929 185.522 M119.449 194.750 C 119.419 199.916,119.540 202.549,119.801 202.388 C 120.283 202.090,120.301 190.766,119.824 188.458 C 119.603 187.390,119.479 189.463,119.449 194.750 M123.332 203.483 C 123.850 204.142,127.917 204.174,200.148 204.081 L 276.418 203.982 200.239 203.881 C 140.109 203.800,123.925 203.674,123.423 203.283 C 122.859 202.843,122.848 202.866,123.332 203.483 M160.728 217.214 C 182.472 217.271,217.935 217.271,239.534 217.214 C 261.134 217.157,243.343 217.111,200.000 217.111 C 156.657 217.111,138.984 217.157,160.728 217.214 M279.244 218.840 C 279.115 219.049,279.274 219.322,279.598 219.446 C 279.932 219.574,280.084 219.936,279.951 220.283 C 279.822 220.620,279.805 220.896,279.915 220.896 C 280.024 220.896,280.203 220.664,280.311 220.381 C 280.556 219.744,279.568 218.316,279.244 218.840 M119.403 227.662 C 119.403 232.102,119.542 234.389,119.801 234.229 C 120.039 234.082,120.199 231.446,120.199 227.662 C 120.199 223.877,120.039 221.242,119.801 221.095 C 119.542 220.934,119.403 223.221,119.403 227.662 M122.798 236.399 C 122.656 236.628,122.841 236.816,123.209 236.816 C 123.759 236.816,123.790 236.923,123.383 237.413 C 122.943 237.943,131.464 238.010,199.667 238.010 C 272.525 238.010,276.446 237.974,276.446 237.313 C 276.446 236.652,272.592 236.622,200.256 236.718 C 147.319 236.789,123.912 236.692,123.561 236.401 C 123.209 236.108,122.978 236.108,122.798 236.399 M120.995 251.299 C 120.995 251.603,120.688 251.827,120.314 251.797 C 119.930 251.765,119.600 252.049,119.558 252.446 C 119.507 252.929,119.543 252.960,119.672 252.545 C 119.886 251.854,120.434 251.753,120.796 252.338 C 120.931 252.557,121.255 252.722,121.516 252.705 C 121.858 252.682,121.863 252.622,121.535 252.487 C 121.284 252.384,121.171 251.951,121.283 251.523 C 121.394 251.096,121.375 250.746,121.240 250.746 C 121.105 250.746,120.995 250.995,120.995 251.299 M121.861 250.949 C 122.123 251.211,279.077 251.205,279.339 250.943 C 279.447 250.835,244.013 250.746,200.597 250.746 C 157.181 250.746,121.750 250.838,121.861 250.949 M119.403 261.493 C 119.403 265.933,119.542 268.220,119.801 268.060 C 120.039 267.912,120.199 265.277,120.199 261.493 C 120.199 257.708,120.039 255.073,119.801 254.925 C 119.542 254.765,119.403 257.052,119.403 261.493 M123.246 271.741 C 123.144 271.905,157.684 272.040,200.000 272.040 C 242.316 272.040,276.856 271.905,276.754 271.741 C 276.653 271.577,242.113 271.443,200.000 271.443 C 157.887 271.443,123.347 271.577,123.246 271.741 M122.929 285.025 C 124.140 285.226,157.999 285.335,201.238 285.277 C 251.821 285.209,277.415 285.308,277.419 285.572 C 277.423 285.803,277.548 285.786,277.718 285.532 C 277.878 285.292,278.279 284.992,278.607 284.867 C 278.935 284.742,243.562 284.647,200.000 284.655 C 152.291 284.664,121.644 284.811,122.929 285.025 M119.449 294.252 C 119.419 299.418,119.540 302.052,119.801 301.891 C 120.283 301.593,120.301 290.269,119.824 287.960 C 119.603 286.893,119.479 288.966,119.449 294.252 M123.332 302.985 C 123.850 303.645,127.917 303.676,200.148 303.583 L 276.418 303.485 200.239 303.383 C 140.109 303.303,123.925 303.177,123.423 302.785 C 122.859 302.345,122.848 302.368,123.332 302.985 " stroke="none" fill="#a8a4a4" fill-rule="evenodd"></path><path id="path4" d="M225.172 32.984 C 225.021 33.560,225.148 33.685,225.730 33.533 C 226.321 33.378,226.386 33.216,226.029 32.787 C 225.445 32.084,225.405 32.093,225.172 32.984 M110.348 33.333 C 131.090 33.390,165.030 33.390,185.771 33.333 C 206.512 33.276,189.542 33.230,148.060 33.230 C 106.577 33.230,89.607 33.276,110.348 33.333 M71.043 199.005 C 71.043 289.303,71.089 326.244,71.144 281.095 C 71.200 235.945,71.200 162.065,71.144 116.915 C 71.089 71.766,71.043 108.706,71.043 199.005 M239.037 44.229 C 238.616 44.638,238.392 45.092,238.539 45.239 C 238.686 45.386,238.806 45.286,238.806 45.018 C 238.806 44.750,238.985 44.641,239.204 44.776 C 239.423 44.911,239.602 44.805,239.602 44.539 C 239.602 44.239,239.904 44.329,240.398 44.776 C 241.378 45.663,241.457 45.216,240.498 44.214 C 239.823 43.509,239.777 43.509,239.037 44.229 M240.025 45.822 C 239.990 46.738,241.027 47.557,241.419 46.923 C 241.607 46.618,241.547 46.548,241.252 46.730 C 240.974 46.902,240.642 46.649,240.420 46.095 C 240.177 45.489,240.042 45.396,240.025 45.822 M95.571 60.240 C 95.241 60.638,95.150 97.266,95.224 199.444 L 95.325 338.109 95.423 199.383 C 95.500 92.126,95.631 60.548,96.000 60.179 C 96.263 59.916,96.374 59.701,96.248 59.701 C 96.121 59.701,95.817 59.944,95.571 60.240 M197.815 102.676 C 197.820 125.951,197.918 144.902,198.031 144.788 C 198.293 144.526,198.262 60.816,198.000 60.554 C 197.892 60.446,197.809 79.401,197.815 102.676 M257.516 62.047 C 256.944 62.206,256.709 62.436,256.960 62.591 C 257.199 62.739,257.735 62.603,258.150 62.288 C 258.982 61.659,258.952 61.647,257.516 62.047 M263.881 64.816 C 263.881 64.974,264.239 65.131,264.677 65.164 C 265.114 65.197,265.473 65.094,265.473 64.936 C 265.473 64.777,265.114 64.620,264.677 64.587 C 264.239 64.554,263.881 64.657,263.881 64.816 M227.833 71.995 C 227.953 72.189,227.784 72.569,227.458 72.839 C 226.944 73.266,226.878 76.271,226.960 95.472 L 227.055 117.612 227.259 95.323 L 227.463 73.035 228.374 73.084 C 229.240 73.130,229.252 73.096,228.611 72.387 C 227.909 71.612,227.454 71.382,227.833 71.995 M273.831 76.172 C 273.831 76.500,274.010 76.880,274.229 77.015 C 274.448 77.150,274.627 76.992,274.627 76.664 C 274.627 76.336,274.448 75.956,274.229 75.821 C 274.010 75.686,273.831 75.844,273.831 76.172 M286.050 85.189 C 285.882 85.832,285.975 85.977,286.442 85.798 C 286.877 85.631,286.985 85.742,286.815 86.185 C 286.672 86.557,286.741 86.705,286.987 86.554 C 287.213 86.414,287.663 86.519,287.987 86.788 C 288.477 87.195,288.530 87.157,288.300 86.558 C 288.095 86.025,288.160 85.924,288.551 86.165 C 288.912 86.389,288.984 86.338,288.777 86.005 C 288.612 85.737,288.231 85.612,287.931 85.727 C 287.631 85.843,287.134 85.579,286.828 85.141 C 286.274 84.351,286.269 84.351,286.050 85.189 M289.154 88.358 C 288.498 88.525,288.139 88.697,288.358 88.740 C 288.577 88.782,289.070 88.877,289.453 88.950 C 289.836 89.024,290.149 88.910,290.149 88.698 C 290.149 88.485,290.316 88.414,290.520 88.540 C 290.724 88.666,291.003 88.587,291.140 88.365 C 291.420 87.912,290.914 87.910,289.154 88.358 M244.577 89.154 C 244.442 89.373,244.386 89.566,244.454 89.583 C 245.765 89.907,245.988 89.854,245.546 89.321 C 244.988 88.649,244.899 88.634,244.577 89.154 M302.488 98.929 C 302.488 99.313,302.298 99.440,301.990 99.263 C 301.716 99.106,301.632 99.130,301.803 99.318 C 302.421 99.997,303.191 99.832,302.990 99.062 C 302.751 98.149,302.488 98.079,302.488 98.929 M306.070 103.212 C 306.070 103.408,306.329 103.468,306.646 103.346 C 307.026 103.201,307.150 103.316,307.009 103.683 C 306.891 103.990,307.079 104.648,307.427 105.145 L 308.060 106.048 308.060 105.140 C 308.060 104.636,308.237 104.341,308.458 104.478 C 308.677 104.613,308.856 104.444,308.856 104.103 C 308.856 103.342,307.973 103.461,307.556 104.279 C 307.378 104.628,307.337 104.432,307.458 103.806 C 307.629 102.920,307.527 102.746,306.867 102.796 C 306.428 102.829,306.070 103.016,306.070 103.212 M268.249 114.645 C 267.847 115.397,267.876 115.420,268.633 114.947 C 269.494 114.409,269.720 113.831,269.069 113.831 C 268.858 113.831,268.489 114.197,268.249 114.645 M319.358 115.495 C 319.224 115.712,319.324 116.099,319.581 116.353 C 319.937 116.706,319.977 116.627,319.750 116.020 C 319.488 115.319,319.531 115.288,320.111 115.759 C 320.473 116.053,320.949 116.232,321.168 116.157 C 321.387 116.082,321.124 115.813,320.584 115.560 C 319.947 115.262,319.517 115.239,319.358 115.495 M227.524 117.711 C 227.356 117.983,243.550 117.978,264.080 117.702 C 268.458 117.643,262.065 117.554,249.874 117.504 C 237.683 117.454,227.626 117.547,227.524 117.711 M325.604 120.275 C 325.586 120.864,325.779 121.474,326.032 121.630 C 326.325 121.811,326.383 121.739,326.192 121.429 C 326.023 121.156,326.213 120.568,326.628 120.081 C 327.174 119.440,327.194 119.348,326.705 119.725 C 326.172 120.137,326.009 120.135,325.841 119.718 C 325.728 119.435,325.621 119.686,325.604 120.275 M226.965 146.766 C 240.701 146.824,263.179 146.824,276.915 146.766 C 290.652 146.708,279.413 146.661,251.940 146.661 C 224.468 146.661,213.229 146.708,226.965 146.766 M120.995 151.797 C 120.995 152.101,120.688 152.324,120.314 152.294 C 119.930 152.263,119.600 152.546,119.558 152.943 C 119.507 153.426,119.543 153.458,119.672 153.043 C 119.886 152.351,120.434 152.250,120.796 152.836 C 120.931 153.055,121.255 153.220,121.516 153.202 C 121.858 153.180,121.863 153.119,121.535 152.984 C 121.284 152.882,121.171 152.448,121.283 152.021 C 121.394 151.593,121.375 151.244,121.240 151.244 C 121.105 151.244,120.995 151.493,120.995 151.797 M121.863 151.449 C 122.193 151.778,173.532 151.871,173.532 151.542 C 173.532 151.378,161.861 151.244,147.595 151.244 C 133.330 151.244,121.751 151.336,121.863 151.449 M119.403 161.990 C 119.403 166.431,119.542 168.718,119.801 168.557 C 120.039 168.410,120.199 165.775,120.199 161.990 C 120.199 158.205,120.039 155.570,119.801 155.423 C 119.542 155.263,119.403 157.549,119.403 161.990 M174.092 161.990 C 174.092 165.602,174.153 167.080,174.226 165.274 C 174.300 163.468,174.300 160.512,174.226 158.706 C 174.153 156.900,174.092 158.378,174.092 161.990 M175.920 161.967 C 175.920 165.767,176.080 168.410,176.318 168.557 C 176.578 168.717,176.716 166.505,176.716 162.213 C 176.716 158.084,176.568 155.622,176.318 155.622 C 176.070 155.622,175.920 158.002,175.920 161.967 M173.174 171.841 C 173.476 172.333,173.979 172.736,174.291 172.736 C 174.604 172.736,174.784 172.690,174.693 172.633 C 174.602 172.576,174.099 172.173,173.575 171.737 L 172.624 170.945 173.174 171.841 M123.246 172.239 C 123.144 172.403,134.310 172.537,148.060 172.537 C 161.809 172.537,172.975 172.403,172.874 172.239 C 172.772 172.075,161.606 171.940,148.060 171.940 C 134.513 171.940,123.347 172.075,123.246 172.239 M122.929 185.522 C 124.140 185.723,157.999 185.832,201.238 185.774 C 251.821 185.706,277.415 185.805,277.419 186.070 C 277.423 186.300,277.548 186.283,277.718 186.030 C 277.878 185.789,278.279 185.490,278.607 185.365 C 278.935 185.240,243.562 185.144,200.000 185.153 C 152.291 185.162,121.644 185.309,122.929 185.522 M119.449 194.750 C 119.419 199.916,119.540 202.549,119.801 202.388 C 120.283 202.090,120.301 190.766,119.824 188.458 C 119.603 187.390,119.479 189.463,119.449 194.750 M123.332 203.483 C 123.850 204.142,127.917 204.174,200.148 204.081 L 276.418 203.982 200.239 203.881 C 140.109 203.800,123.925 203.674,123.423 203.283 C 122.859 202.843,122.848 202.866,123.332 203.483 M160.728 217.214 C 182.472 217.271,217.935 217.271,239.534 217.214 C 261.134 217.157,243.343 217.111,200.000 217.111 C 156.657 217.111,138.984 217.157,160.728 217.214 M279.244 218.840 C 279.115 219.049,279.274 219.322,279.598 219.446 C 279.932 219.574,280.084 219.936,279.951 220.283 C 279.822 220.620,279.805 220.896,279.915 220.896 C 280.024 220.896,280.203 220.664,280.311 220.381 C 280.556 219.744,279.568 218.316,279.244 218.840 M119.403 227.662 C 119.403 232.102,119.542 234.389,119.801 234.229 C 120.039 234.082,120.199 231.446,120.199 227.662 C 120.199 223.877,120.039 221.242,119.801 221.095 C 119.542 220.934,119.403 223.221,119.403 227.662 M122.798 236.399 C 122.656 236.628,122.841 236.816,123.209 236.816 C 123.759 236.816,123.790 236.923,123.383 237.413 C 122.943 237.943,131.464 238.010,199.667 238.010 C 272.525 238.010,276.446 237.974,276.446 237.313 C 276.446 236.652,272.592 236.622,200.256 236.718 C 147.319 236.789,123.912 236.692,123.561 236.401 C 123.209 236.108,122.978 236.108,122.798 236.399 M120.995 251.299 C 120.995 251.603,120.688 251.827,120.314 251.797 C 119.930 251.765,119.600 252.049,119.558 252.446 C 119.507 252.929,119.543 252.960,119.672 252.545 C 119.886 251.854,120.434 251.753,120.796 252.338 C 120.931 252.557,121.255 252.722,121.516 252.705 C 121.858 252.682,121.863 252.622,121.535 252.487 C 121.284 252.384,121.171 251.951,121.283 251.523 C 121.394 251.096,121.375 250.746,121.240 250.746 C 121.105 250.746,120.995 250.995,120.995 251.299 M121.861 250.949 C 122.123 251.211,279.077 251.205,279.339 250.943 C 279.447 250.835,244.013 250.746,200.597 250.746 C 157.181 250.746,121.750 250.838,121.861 250.949 M119.403 261.493 C 119.403 265.933,119.542 268.220,119.801 268.060 C 120.039 267.912,120.199 265.277,120.199 261.493 C 120.199 257.708,120.039 255.073,119.801 254.925 C 119.542 254.765,119.403 257.052,119.403 261.493 M123.246 271.741 C 123.144 271.905,157.684 272.040,200.000 272.040 C 242.316 272.040,276.856 271.905,276.754 271.741 C 276.653 271.577,242.113 271.443,200.000 271.443 C 157.887 271.443,123.347 271.577,123.246 271.741 M122.929 285.025 C 124.140 285.226,157.999 285.335,201.238 285.277 C 251.821 285.209,277.415 285.308,277.419 285.572 C 277.423 285.803,277.548 285.786,277.718 285.532 C 277.878 285.292,278.279 284.992,278.607 284.867 C 278.935 284.742,243.562 284.647,200.000 284.655 C 152.291 284.664,121.644 284.811,122.929 285.025 M119.449 294.252 C 119.419 299.418,119.540 302.052,119.801 301.891 C 120.283 301.593,120.301 290.269,119.824 287.960 C 119.603 286.893,119.479 288.966,119.449 294.252 M123.332 302.985 C 123.850 303.645,127.917 303.676,200.148 303.583 L 276.418 303.485 200.239 303.383 C 140.109 303.303,123.925 303.177,123.423 302.785 C 122.859 302.345,122.848 302.368,123.332 302.985 " stroke="none" fill="#a8a4a4" fill-rule="evenodd"></path></g></svg>