<svg xmlns="http://www.w3.org/2000/svg" viewBox="0 0 357.57 423.04"><defs><style>.cls-1{fill:#666;}</style></defs><g id="Layer_2" data-name="Layer 2"><g id="Layer_1-2" data-name="Layer 1"><path class="cls-1" d="M11.92,0H255.26L357.57,102.32V423H0V0ZM245.36,23.84H23.84V399.2H333.73v-287L245.36,23.84Z"/><path class="cls-1" d="M262.23,40.71V95.34h54.64L262.23,40.71Zm-23.84-29.2h28.37L341.28,86v33.16H238.39V11.51Z"/><polygon class="cls-1" points="64.07 154.52 293.5 154.52 293.5 178.36 64.07 178.36 64.07 154.52 64.07 154.52"/><polygon class="cls-1" points="64.07 199.97 293.5 199.97 293.5 223.81 64.07 223.81 64.07 199.97 64.07 199.97"/><polygon class="cls-1" points="64.07 244.68 293.5 244.68 293.5 268.51 64.07 268.51 64.07 244.68 64.07 244.68"/></g></g></svg>