<svg xmlns="http://www.w3.org/2000/svg" width="55" height="55" viewBox="0 0 55 55">
    <g fill="none" fill-rule="evenodd" stroke-linecap="round" stroke-linejoin="round">
        <g stroke="#FFF">
            <g>
                <g>
                    <g>
                        <path d="M29.901 36.201h10.5l-12.6 12.6v-10.5c0-1.16.94-2.1 2.1-2.1zM.5 39.098V2.6C.5 1.44 1.44.5 2.6.5h35.701c1.16 0 2.1.94 2.1 2.1v29.269" transform="translate(-33 -177) translate(21 177) translate(19 3)"/>
                        <path d="M23.6 48.801h-21c-1.16 0-2.1-.94-2.1-2.1v-10.5M32.001 10.697L8.9 10.697M32.001 19.097L8.9 19.097M32.001 14.897L8.9 14.897M32.001 27.498L8.9 27.498M32.001 23.297L8.9 23.297M31.405 31.698L8.9 31.698M21.954 40.098L8.9 40.098M21.954 35.898L8.9 35.898" transform="translate(-33 -177) translate(21 177) translate(19 3)"/>
                    </g>
                </g>
            </g>
        </g>
    </g>
</svg>
