<svg xmlns="http://www.w3.org/2000/svg" viewBox="0 0 1090.67 1300"><defs><style>.cls-1{fill:#fff;}</style></defs><g id="Layer_2" data-name="Layer 2"><g id="Layer_1-2" data-name="Layer 1"><g id="Layer_2-2" data-name="Layer 2"><g id="icon"><path class="cls-1" d="M713.9,1300H66.1A66.09,66.09,0,0,1,0,1233.92V66.1A66.09,66.09,0,0,1,66.08,0H713.9A44.07,44.07,0,0,1,758,44v0h0a44.07,44.07,0,0,1-44.07,44.07H88.14V1211.86H713.9a44.07,44.07,0,0,1,44.1,44v0h0A44.07,44.07,0,0,1,713.93,1300Z"/><path class="cls-1" d="M726.79,336.17h0a77.11,77.11,0,0,0-4.18,109l0,0L841,572.88H364.33A77.12,77.12,0,0,0,287.21,650h0a77.12,77.12,0,0,0,77.12,77.12H841L722.64,854.85a77.11,77.11,0,0,0,4.12,109l0,0h0a77.1,77.1,0,0,0,109-4.11l0,0L1067.15,710a88.29,88.29,0,0,0,0-120L835.77,340.31a77.11,77.11,0,0,0-109-4.15Z"/></g></g></g></g></svg>