<svg xmlns="http://www.w3.org/2000/svg" viewBox="0 0 2248.47 2111.11"><defs><style>.cls-1{fill:#2e2d2c;}</style></defs><g id="Layer_2" data-name="Layer 2"><g id="Ñëîé_1" data-name="Ñëîé 1"><path class="cls-1" d="M1395.48,1472.72c0-149.56-121.68-271.24-271.24-271.24S853,1323.16,853,1472.72,974.67,1744,1124.24,1744,1395.48,1622.29,1395.48,1472.72Zm-271.24,222.79c-122.85,0-222.79-99.94-222.79-222.79s99.94-222.79,222.79-222.79S1347,1349.87,1347,1472.72,1247.08,1695.51,1124.24,1695.51Z"/><path class="cls-1" d="M962.7,1766.65a24.25,24.25,0,0,0-31.82-12.74c-122.9,52.63-199.25,152-199.25,259.3v73.67a24.23,24.23,0,0,0,48.46,0v-73.67c0-87.6,65.09-169.89,169.87-214.75A24.24,24.24,0,0,0,962.7,1766.65Z"/><path class="cls-1" d="M1317.55,1753.9a24.23,24.23,0,0,0-19.07,44.54c104.8,44.87,169.9,127.16,169.9,214.77v73.67a24.23,24.23,0,0,0,48.46,0v-73.67C1516.84,1905.88,1440.48,1806.52,1317.55,1753.9Z"/><path class="cls-1" d="M940.44,1988.66a24.23,24.23,0,0,0-24.23,24.23v74a24.23,24.23,0,1,0,48.46,0v-74A24.23,24.23,0,0,0,940.44,1988.66Z"/><path class="cls-1" d="M1308,1988.66a24.22,24.22,0,0,0-24.22,24.23v74a24.23,24.23,0,1,0,48.46,0v-74A24.23,24.23,0,0,0,1308,1988.66Z"/><path class="cls-1" d="M2127.11,1289.15c0-149.56-121.68-271.24-271.24-271.24s-271.25,121.68-271.25,271.24,121.68,271.25,271.25,271.25S2127.11,1438.72,2127.11,1289.15Zm-271.24,222.79c-122.85,0-222.79-99.94-222.79-222.79s99.94-222.79,222.79-222.79,222.79,99.94,222.79,222.79S1978.71,1511.94,1855.87,1511.94Z"/><path class="cls-1" d="M2049.19,1570.33a24.23,24.23,0,1,0-19.07,44.54C2134.91,1659.74,2200,1742,2200,1829.64v73.67a24.23,24.23,0,1,0,48.46,0v-73.67C2248.47,1722.31,2172.11,1623,2049.19,1570.33Z"/><path class="cls-1" d="M1672.07,1805.09a24.23,24.23,0,0,0-24.23,24.23v74a24.23,24.23,0,0,0,48.46,0v-74A24.23,24.23,0,0,0,1672.07,1805.09Z"/><path class="cls-1" d="M2039.67,1805.09a24.23,24.23,0,0,0-24.23,24.23v74a24.23,24.23,0,0,0,48.46,0v-74A24.23,24.23,0,0,0,2039.67,1805.09Z"/><path class="cls-1" d="M1694.33,1583.08a24.24,24.24,0,0,0-31.81-12.74c-95.37,40.84-163,109.23-188.37,188.22a0,0,0,0,1,0,0,24.41,24.41,0,0,0,45.54,17.59c0-.08.07-.17.11-.26.1-.26.2-.53.29-.8,21.58-65,80.11-125.38,161.51-160.23A24.24,24.24,0,0,0,1694.33,1583.08Z"/><path class="cls-1" d="M663.85,1289.15c0-149.57-121.68-271.24-271.25-271.24s-271.24,121.67-271.24,271.24S243,1560.4,392.6,1560.4,663.85,1438.72,663.85,1289.15ZM392.6,1511.94c-122.84,0-222.78-99.94-222.78-222.79s99.94-222.79,222.78-222.79,222.79,99.94,222.79,222.79S515.45,1511.94,392.6,1511.94Z"/><path class="cls-1" d="M199.28,1570.33C76.36,1623,0,1722.31,0,1829.64v73.67a24.23,24.23,0,0,0,48.46,0v-73.67c0-87.61,65.1-169.9,169.89-214.77a24.23,24.23,0,1,0-19.07-44.54Z"/><path class="cls-1" d="M576.4,1805.09a24.23,24.23,0,0,0-24.23,24.23v74a24.23,24.23,0,0,0,48.46,0v-74A24.23,24.23,0,0,0,576.4,1805.09Z"/><path class="cls-1" d="M208.81,1805.09a24.23,24.23,0,0,0-24.24,24.23v74a24.23,24.23,0,1,0,48.46,0v-74A24.22,24.22,0,0,0,208.81,1805.09Z"/><path class="cls-1" d="M751.45,1791.51a24.41,24.41,0,0,0,22.88-32.92v0c-25.39-79-93-147.38-188.37-188.22a24.23,24.23,0,1,0-19.07,44.55c81.41,34.85,139.93,95.25,161.51,160.23.09.27.19.54.29.8,0,.09.07.18.11.26A24.39,24.39,0,0,0,751.45,1791.51Z"/><path class="cls-1" d="M431,546.43C478.25,592.94,544.36,629.51,623.22,653c-19.31,67.25-46,118.94-76,147a24,24,0,0,0,16.36,41.55,24.77,24.77,0,0,0,3.92-.32c58-9.57,111.26-33.53,158.36-71.22a411,411,0,0,0,81-87.55c13.1.57,26.35.86,39.53.86,67.81,0,132.3-7.33,191.67-21.78,60.38-14.69,113.84-36.37,158.89-64.43,47.43-29.53,84.47-65.5,110.12-106.9,27.3-44.08,41.14-93.47,41.14-146.79s-13.82-102.85-41.1-147.24c-25.64-41.75-62.66-78.11-110-108.07-45.13-28.56-98.6-50.66-158.91-65.68C978.63,7.52,914.1,0,846.38,0S714.13,7.52,654.59,22.34C594.28,37.36,540.81,59.46,495.68,88c-47.36,30-84.38,66.32-110,108.07-27.27,44.39-41.1,93.93-41.1,147.24,0,39.54,7.69,77.2,22.85,111.94C381.92,488.52,403.31,519.19,431,546.43Zm90.36-417.85C603.47,76.62,718.9,48,846.38,48s242.91,28.62,325,80.58c58.75,37.17,128.78,104.61,128.78,214.75,0,109.79-70,176.4-128.63,213-81.76,50.91-197.24,79-325.19,79-16.89,0-33.88-.5-50.49-1.48a24,24,0,0,0-21.56,10.92C745,690,697.26,744.45,625.72,774.72c24.12-42.88,40-92.46,50.13-132.72a24,24,0,0,0-17.31-29.07c-169-43.37-266-141.63-266-269.6C392.56,233.19,462.59,165.75,521.34,128.58Z"/><path class="cls-1" d="M1037,734.1a24,24,0,0,0-20.93,43.2c84.88,41.12,191.41,62.86,308.09,62.86,13.2,0,26.44-.29,39.54-.86a411.17,411.17,0,0,0,81,87.55c47.11,37.69,100.39,61.65,158.36,71.21a23.66,23.66,0,0,0,3.92.33,24,24,0,0,0,16.36-41.55c-30-28-56.66-79.71-76-147,78.86-23.44,145-60,192.24-106.53,27.67-27.23,49.07-57.9,63.58-91.15,15.16-34.74,22.85-72.4,22.85-111.94,0-92.76-42-173.95-121.61-234.78-73-55.84-173.72-91.81-291.22-104a24,24,0,0,0-5,47.74c108.7,11.3,201,43.94,267,94.4C1742.49,355,1778,423,1778,500.26c0,128-97,226.23-266,269.59a24,24,0,0,0-17.32,29.08c10.08,40.26,26,89.84,50.13,132.72-71.53-30.28-119.26-84.72-148.61-130a23.94,23.94,0,0,0-21.56-10.92c-16.6,1-33.58,1.48-50.49,1.48C1214.73,792.16,1115.43,772.08,1037,734.1Z"/></g></g></svg>