<svg xmlns="http://www.w3.org/2000/svg" width="55" height="55" viewBox="0 0 55 55">
    <g fill="none" fill-rule="evenodd" stroke-linecap="round" stroke-linejoin="round">
        <g stroke="#FFF">
            <g>
                <g>
                    <g>
                        <g>
                            <path d="M36 10.445c0 3.437-2.686 6.222-6 6.222s-6-2.785-6-6.222V6.89c0-3.437 2.686-6.223 6-6.223s6 2.786 6 6.223v3.555zM19 6.667c0 2.762-2.238 5-5 5-2.761 0-5-2.238-5-5s2.239-5 5-5c2.762 0 5 2.238 5 5zM19 22.948c-1.995-1.437-4.435-2.281-7.09-2.281-5.887 0-10.785 4.18-11.874 9.699-.242 1.2.766 2.3 1.995 2.3h9.878M30.5 22.667h0c-7.881 0-14.402 5.966-15.48 13.725-.167 1.2.767 2.275 1.95 2.275H44.03c1.185 0 2.119-1.076 1.952-2.275-1.08-7.76-7.599-13.725-15.481-13.725z" transform="translate(-33 -492) translate(21 492) translate(12) translate(5 8)"/>
                        </g>
                    </g>
                </g>
            </g>
        </g>
    </g>
</svg>
